<svg id="Capa_1" enable-background="new 0 0 512 512" height="512" viewBox="0 0 512 512" width="512" xmlns="http://www.w3.org/2000/svg"><g><g><g><path d="m155.087 209.704c-4.142 0-7.5-3.357-7.5-7.5v-13.346c0-4.143 3.358-7.5 7.5-7.5s7.5 3.357 7.5 7.5v13.346c0 4.143-3.358 7.5-7.5 7.5z"/></g><g><path d="m238.201 250.267c-18.666 0-33.851-16.592-33.851-36.986 0-25.315 22.863-25.315 33.851-25.315 10.987 0 33.851 0 33.851 25.315 0 20.394-15.186 36.986-33.851 36.986zm0-47.302c-17.226 0-18.851 2.829-18.851 10.315 0 12.123 8.457 21.986 18.851 21.986s18.851-9.863 18.851-21.986c0-7.486-1.625-10.315-18.851-10.315z"/></g><g><path d="m321.315 209.704c-4.142 0-7.5-3.357-7.5-7.5v-13.346c0-4.143 3.358-7.5 7.5-7.5s7.5 3.357 7.5 7.5v13.346c0 4.143-3.358 7.5-7.5 7.5z"/></g></g><path d="m406.477 370.657c44.948-44.949 69.703-104.711 69.703-168.277 0-31.819-6.136-62.6-18.206-91.552 3.963-6.296 6.095-13.587 6.094-21.209 0-10.666-4.154-20.693-11.696-28.235s-17.569-11.695-28.235-11.695-20.693 4.153-28.235 11.695l-6.504 6.504c-38.438-43.183-93.325-67.888-151.197-67.888-7.355 0-14.845.412-22.262 1.225-49.243 5.391-94.717 28.703-128.046 65.643-33.579 37.218-52.072 85.344-52.072 135.513 0 4.143 3.358 7.5 7.5 7.5s7.5-3.357 7.5-7.5c0-93.183 67.872-171.492 159.107-185.241l1.003 14.014c.421 5.881 2.625 11.396 6.373 15.949 2.406 2.923 3.383 6.731 2.68 10.452l-2.41 12.751c-.356 1.889-.508 3.819-.45 5.736l1.194 39.794c.21 7.005 3.109 13.536 8.165 18.391l9.845 9.455c.9.864 1.652 1.864 2.233 2.971l6.402 12.177c3.585 6.82 9.943 11.746 17.443 13.514 2.021.477 4.07.711 6.108.711 5.524 0 10.965-1.722 15.534-5.009l9.576-6.889c4.361-3.137 7.636-7.465 9.47-12.515l5.779-15.911c.981-2.701 2.918-4.932 5.455-6.282l13.961-7.431c4.096-2.18 7.565-5.409 10.032-9.34l5.688-9.062c1.529-2.436 3.894-4.209 6.662-4.993l21.647-6.141c1.163-.329 2.316-.744 3.429-1.231l8.214-3.604c26.875 33.247 41.622 74.832 41.622 117.733 0 8.288-.546 16.625-1.624 24.779-.542 4.106 2.347 7.875 6.453 8.418.333.044.664.065.992.065 3.705 0 6.928-2.745 7.426-6.519 1.163-8.804 1.753-17.802 1.753-26.744 0-21.473-3.427-42.639-9.985-62.748l16.24-16.241c9.514 25.121 14.342 51.642 14.342 78.989 0 59.56-23.194 115.555-65.309 157.67s-98.109 65.309-157.669 65.309c-27.201 0-53.59-4.779-78.596-14.194l16.296-16.296c19.904 6.46 40.9 9.892 62.3 9.892 51.585 0 100.722-19.425 138.357-54.697 26.357-24.703 45.652-55.968 55.801-90.415 1.17-3.973-1.102-8.143-5.075-9.313-3.971-1.168-8.143 1.101-9.314 5.075-8.066 27.377-22.394 52.575-41.731 73.638l-2.942-16.264c-.493-2.727-1.536-5.269-3.099-7.555l-30.583-44.731c-.735-1.074-1.579-2.076-2.508-2.979l-14.067-13.68c-3.971-3.861-9.414-5.858-14.944-5.491-5.526.372-10.656 3.085-14.074 7.443l-7.017 8.947c-.322.41-.708.759-1.146 1.037l-27.849 17.641c-.684.433-1.472.677-2.28.705l-15.668.542c-4.292.147-8.478 1.736-11.788 4.474l-3.657 3.025c-5.76 4.765-8.316 12.53-6.513 19.786l.529 2.127c.594 2.392-.796 4.797-3.165 5.476-1.189.34-2.485.179-3.554-.447l-19.551-11.438c-1.07-.626-1.847-1.678-2.132-2.885l-6.496-27.55c-1.441-6.113-5.768-11.192-11.573-13.588l-8.368-3.453c-8.835-3.648-18.935-.417-24.017 7.675l-12.142 19.335c-.264.42-.592.791-.975 1.104l-35.907 29.363c-.97.794-2.237 1.153-3.483.988l-3.734-.496c-15.793-23.062-26.349-49.693-30.558-77.248-.625-4.095-4.453-6.908-8.546-6.281-4.095.625-6.907 4.452-6.282 8.547 4.722 30.915 16.82 60.766 34.985 86.322 9.033 12.708 19.425 24.18 30.879 34.311l-6.867 6.867c-15.568 15.569-15.568 40.902 0 56.472 7.785 7.784 18.01 11.677 28.236 11.677 7.599 0 15.196-2.154 21.794-6.453 23.325 9.657 47.832 15.472 73.108 17.328v15.649c-16.52 3.09-31.925 8.298-45.11 15.407-9.03 4.869-13.415 14.81-10.909 24.736 2.492 9.873 11.022 16.507 21.226 16.507h141.016c10.204 0 18.733-6.634 21.226-16.507 2.506-9.927-1.878-19.867-10.909-24.736-13.185-7.109-28.59-12.317-45.11-15.407v-21.008c43.123-9.861 82.709-31.634 114.761-63.685zm-36.756-296.143c-.487.214-.991.395-1.498.538l-21.646 6.14c-6.345 1.799-11.77 5.865-15.274 11.451l-5.688 9.06c-1.076 1.715-2.59 3.124-4.376 4.075l-13.96 7.431c-5.815 3.095-10.256 8.209-12.505 14.401l-5.779 15.911c-.8 2.203-2.228 4.091-4.13 5.459l-9.577 6.89c-2.768 1.992-6.118 2.658-9.439 1.874-3.319-.782-6.021-2.876-7.608-5.895l-6.402-12.177c-1.333-2.535-3.056-4.826-5.12-6.809l-9.846-9.455c-2.205-2.118-3.469-4.967-3.561-8.021l-1.194-39.795c-.025-.836.041-1.679.197-2.503l2.41-12.748c1.532-8.104-.596-16.405-5.839-22.772-1.759-2.138-2.794-4.726-2.991-7.485l-1.044-14.588c4.47-.318 8.939-.495 13.353-.495 51.296 0 100.071 20.954 135.366 57.826zm55.129 49.65c-6.642-15.853-15.315-30.871-25.857-44.659l7.514-7.514c9.721-9.721 25.538-9.721 35.258 0 9.721 9.72 9.721 25.537 0 35.257zm-330.412 198.367c2.092-.746 4.068-1.825 5.812-3.252l35.906-29.362c1.644-1.344 3.05-2.938 4.181-4.737l12.146-19.338c1.183-1.886 3.534-2.638 5.593-1.788l8.368 3.453c1.352.559 2.359 1.741 2.695 3.164l6.496 27.55c1.222 5.185 4.56 9.701 9.157 12.391l19.55 11.438c4.589 2.685 10.152 3.385 15.263 1.919 10.172-2.916 16.14-13.245 13.587-23.515l-.529-2.126c-.42-1.69.175-3.499 1.517-4.608l3.656-3.024c.771-.638 1.746-1.008 2.746-1.043l15.669-.542c3.47-.12 6.854-1.165 9.787-3.023l27.85-17.641c1.887-1.196 3.543-2.694 4.922-4.453l7.017-8.947c1.089-1.39 2.521-1.682 3.277-1.733.756-.049 2.214.049 3.48 1.279l14.068 13.681c.216.21.413.444.583.693l30.582 44.729c.364.532.606 1.124.721 1.759l4.775 26.398c-34.438 30.922-78.703 47.907-125.111 47.907-55.609 0-108.311-24.894-143.764-67.229zm13.317 84.011c-9.72-9.72-9.72-25.537 0-35.258l7.906-7.906c13.777 10.469 28.827 19.121 44.752 25.764l-17.4 17.4c-9.721 9.721-25.537 9.721-35.258 0zm225.435 85.279c-.307 1.215-1.695 5.179-6.682 5.179h-141.016c-4.987 0-6.375-3.964-6.682-5.179-.312-1.235-.982-5.453 3.484-7.861 20.203-10.894 46.379-16.893 73.706-16.893s53.502 5.999 73.706 16.893c4.466 2.408 3.795 6.626 3.484 7.861zm-56.476-38.658c-6.802-.716-13.727-1.095-20.714-1.095s-13.912.38-20.714 1.095v-12.84c.972.011 1.942.036 2.916.036 13.031 0 25.897-1.057 38.513-3.099v15.903z"/></g></svg>