<?xml version="1.0" encoding="utf-8"?>
<!-- Generator: Adobe Illustrator 27.5.0, SVG Export Plug-In . SVG Version: 6.00 Build 0)  -->
<svg version="1.1" id="Layer_1" xmlns="http://www.w3.org/2000/svg" xmlns:xlink="http://www.w3.org/1999/xlink" x="0px" y="0px"
	 viewBox="0 0 1000 1000" style="enable-background:new 0 0 1000 1000;" xml:space="preserve">
<g>
	<g>
		<path style="fill:#E8E8E8;" d="M970.591,969.367c-16.719-7.46-28.148-22.839-40-36.131c-6.443-7.225-14.062-13.575-17.227-23.028
			c-1.501-4.483-2.079-9.25-2.371-13.948c-0.262-4.224-1.3-10.022,0.635-13.94c3.298-6.682,14.078-4.359,19.516-2.258
			c7.233,2.796,13.315,7.777,19.369,12.491c8.005,6.233,16.045,11.976,26.384,13.232c7.913,0.962,16.207,0.687,23.103,4.652v4.829
			c-6.42-5.144-15.328-4.529-23.103-5.447c-6.648-0.784-12.616-2.925-18.293-6.467c-11.362-7.088-21.662-19.916-35.766-21.197
			c-1.513-0.137-3.23-0.256-4.718,0.109c-3.622,0.89-3.373,4.155-3.328,7.103c0.075,4.853,0.221,9.749,1.119,14.531
			c1.881,10.016,8.094,16.17,14.725,23.382c10.44,11.353,19.8,24.267,32.553,33.211c9.469,6.641,26.01,12.209,36.81,6.143v4.241
			C990.994,974.701,979.323,973.264,970.591,969.367z"/>
	</g>
	<g>
		<path style="fill:#E8E8E8;" d="M1000,14.458c-3.615,2.583-7.774,4.344-12.234,5.451c-16.08,3.989-32.708-1.118-48.967-0.556
			c-14.828,0.513-29.526,4.507-42.573,11.575c-12.052,6.529-23.479,16.193-28.247,29.439c-2.195,6.1-2.456,12.839-0.299,18.985
			c2.605,7.424,7.797,13.841,6.366,22.155c-2.818,16.373-20.03,23.644-34.066,27.815c-13.238,3.934-27.325,7.335-37.323,17.567
			c-5.837,5.973-15.476,25.02-0.544,26.242c8.338,0.682,17.263-0.746,25.614-1.193c4.524-0.242,9.048-0.484,13.572-0.726
			c2.658-0.142,3.657-0.013,4.428,2.589c0.455,1.539,0.476,3.225,0.237,4.805c-2.465,16.33-23.611,15.708-35.944,17.402
			c-14.978,2.057-29.992,6.178-42.944,14.187c-11.687,7.227-21.384,17.701-26.72,30.446c-4.807,11.481-6.728,27.315,1.157,37.941
			c8.34,11.239,25.614,14.158,38.61,15.223c15.904,1.303,31.844-0.586,47.758,0.207c12.757,0.636,25.964,3.471,37.014,10.104
			c5.358,3.216,10.196,7.429,13.61,12.703c3.695,5.706,4.862,12.12,6.724,18.534c1.629,5.613,4.202,11.19,9.428,14.287
			c4.903,2.906,10.925,2.848,16.248,1.237c13.547-4.1,20.203-16.52,30.047-25.546c12.454-11.419,28.706-8.448,43.583-13.543
			c5.689-1.948,11.53-5.43,15.463-10.162v-8.195c-1.216,3.829-3.911,7.077-7.313,9.625c-9.17-10.585-18.341-21.17-27.511-31.755
			c-31.958-36.889-63.917-73.778-95.875-110.667c-8.242-9.513-16.483-19.027-24.725-28.54c6.77-2.187,13.357-4.851,19.053-8.901
			c14.005,16.165,28.009,32.331,42.014,48.496c31.452,36.305,62.905,72.61,94.357,108.915v-6.146
			c-2.268-2.618-4.536-5.236-6.804-7.854c-31.958-36.889-63.917-73.778-95.875-110.667c-10.173-11.743-20.346-23.486-30.52-35.229
			c1.819-1.578,3.523-3.329,5.071-5.311c3.415-4.373,5.864-9.57,6.38-15.133c19.949,23.027,39.899,46.055,59.848,69.082
			c20.633,23.817,41.266,47.633,61.9,71.45v-6.145c-23.407-27.019-46.814-54.037-70.221-81.056
			c-17.336-20.011-34.672-40.022-52.009-60.033c-0.973-4.164-3.01-8.007-4.836-12.026c-3.98-8.765-2.772-17.337,1.259-24.897
			c3.776,4.267,7.546,8.535,11.267,12.831c27.764,32.048,55.528,64.096,83.292,96.144c10.416,12.023,20.832,24.046,31.248,36.069
			v-6.145c-13.19-15.225-26.38-30.45-39.57-45.675c-26.583-30.684-53.165-61.368-79.748-92.052
			c-1.411-1.628-2.821-3.257-4.232-4.885c2.486-3.643,5.591-6.993,9.015-9.941c2.305-1.984,4.765-3.805,7.336-5.48
			c7.647,8.728,15.405,17.369,22.981,26.114c27.764,32.048,55.528,64.095,83.293,96.143c0.309,0.356,0.617,0.712,0.926,1.068v-6.145
			c-3.082-3.558-6.165-7.116-9.247-10.674c-26.583-30.684-53.165-61.368-79.748-92.052c-4.829-5.574-9.659-11.149-14.488-16.723
			c6.258-3.585,13.064-6.341,20.004-8.303c10.26,12.034,20.931,23.77,31.265,35.699c17.405,20.09,34.81,40.18,52.215,60.271v-6.145
			c-18.997-21.928-37.995-43.857-56.992-65.785c-7.286-8.41-14.572-16.821-21.858-25.231c1.949-0.451,3.901-0.844,5.847-1.173
			c6.819-1.153,13.553-1.156,20.274-0.79c17.576,20.288,35.153,40.577,52.73,60.865v-6.145
			c-15.693-18.114-31.386-36.229-47.079-54.343c7.356,0.565,14.719,1.318,22.184,1.256c1.799-0.015,3.614-0.111,5.428-0.277
			c6.489,7.49,12.978,14.98,19.467,22.47v-6.146c-4.897-5.653-9.795-11.306-14.692-16.959c5.195-0.913,10.237-2.578,14.692-5.227
			V14.458z M741.476,250.217c11.285,13.026,22.569,26.051,33.854,39.077c-6.726-0.856-13.323-2.408-19.577-5.152
			c-7.641-3.353-13.128-8.638-14.797-17.024C739.851,261.565,740.194,255.746,741.476,250.217z M808.045,290.017
			c-1.863,0.036-3.716,0.078-5.552,0.119c-7.029,0.157-14.222,0.251-21.34-0.266c-12.786-14.759-25.572-29.518-38.359-44.277
			c2.383-7.156,6.034-13.338,10.617-18.639C771.623,247.975,789.834,268.996,808.045,290.017z M774.118,211.048
			c23.418,27.031,46.836,54.062,70.253,81.092c-10.1-1.993-20.692-2.301-31.07-2.202c-19.043-21.982-38.087-43.963-57.131-65.945
			C761.346,218.776,767.462,214.501,774.118,211.048z M800.053,201.872c28.438,32.826,56.877,65.652,85.315,98.477
			c11.745,13.557,23.49,27.114,35.234,40.671c-4.742,3.981-10.794,6.998-17.026,6.943c-3.122-0.028-5.663-0.988-7.735-2.555
			c-1.345-1.552-2.69-3.105-4.034-4.657c-1.06-1.796-1.889-3.807-2.518-5.905c-1.712-5.702-2.719-11.553-5.47-16.896
			c-2.535-4.924-6.179-9.249-10.442-12.766c-6.746-5.566-14.301-9.145-22.284-11.429c-1.566-1.808-3.132-3.616-4.698-5.423
			c-22.848-26.373-45.696-52.747-68.544-79.12C784.91,205.956,792.461,203.559,800.053,201.872z M831.304,197.091
			c28.129,32.469,56.258,64.938,84.387,97.406c7.869,9.083,15.737,18.165,23.606,27.248c-5.625,4.953-10.258,11.079-15.744,16.534
			c-15.502-17.894-31.004-35.788-46.506-53.682c-24.157-27.884-48.314-55.769-72.472-83.653c2.695-0.5,5.385-0.914,8.048-1.245
			C818.53,198.963,825.188,198.627,831.304,197.091z M846.375,187.772c1.552-2.171,2.738-4.711,3.336-7.363
			c0.703,0.811,1.405,1.622,2.108,2.433c31.958,36.889,63.917,73.778,95.875,110.667c5.208,6.011,10.415,12.022,15.623,18.033
			c-3.808,0.574-7.578,1.293-11.201,2.522c-3.663,1.242-6.817,3.035-9.682,5.156c-11.688-13.492-23.376-26.983-35.065-40.475
			c-23.955-27.652-47.911-55.303-71.866-82.955C839.754,194.183,843.55,191.723,846.375,187.772z M799.023,159.829
			c2.699,3.116,5.398,6.231,8.097,9.347c-3.512,0.314-7.667,0.307-8.802-2.619C797.597,164.701,798.164,162.121,799.023,159.829z
			 M816.325,141.872c7.341,8.474,14.682,16.947,22.023,25.421c-0.376,0.045-0.726,0.081-1.04,0.098
			c-8.413,0.45-16.827,0.901-25.24,1.351c-0.191-0.221-0.383-0.441-0.574-0.662c-3.534-4.079-7.067-8.158-10.601-12.237
			C804.448,149.481,810.01,145.116,816.325,141.872z M840.38,133.396c12.414,14.33,24.829,28.659,37.243,42.989
			c31.958,36.889,63.917,73.778,95.875,110.667c5.258,6.07,10.517,12.139,15.775,18.209c-6.515,3.612-13.846,4.624-21.209,5.616
			c-9.564-11.04-19.128-22.079-28.692-33.119c-29.79-34.386-59.579-68.772-89.369-103.158c-0.043-0.311-0.096-0.62-0.16-0.928
			c-0.418-2.021-1.505-5.074-3.329-6.276c-0.812-0.535-2.006-0.674-3.306-0.639c-7.7-8.889-15.401-17.777-23.102-26.666
			c5.295-2.293,10.916-3.973,16.201-5.5C837.662,134.2,839.021,133.802,840.38,133.396z"/>
	</g>
	<g>
		<path style="fill:#E8E8E8;" d="M581.402,825.333c4.933-11.492,9.286-23.213,13.091-35.127c0.787-2.464,4.683-1.411,3.89,1.073
			c-3.912,12.249-8.426,24.275-13.498,36.09C583.864,829.748,580.388,827.696,581.402,825.333z"/>
	</g>
	<g>
		<path style="fill:#E8E8E8;" d="M490.682,912.486c-1.992,1.634-4.862-1.204-2.853-2.853c9.986-8.196,22.102-12.732,35.033-12.979
			c2.597-0.05,2.597,3.985,0,4.034C511.068,900.914,499.811,904.994,490.682,912.486z"/>
	</g>
	<g>
		<path style="fill:#E8E8E8;" d="M569.925,255.8c-28.471-16.328-57.761-31.227-87.723-44.624
			c-28.26-12.636-57.625-22.475-85.932-34.928c-26.576-11.691-48.91-27.973-65.332-52.171
			c-16.506-24.322-26.946-52.294-38.249-79.25C286.423,29.885,280.157,14.943,273.891,0h4.335
			c12.416,29.729,24.144,59.901,37.854,89.054c12.604,26.802,28.712,52.077,53.877,68.658
			c25.864,17.041,56.387,25.739,84.834,37.379c30.235,12.371,59.86,26.225,88.721,41.53
			c43.971,23.318,106.946,54.272,101.69,113.564c-2.633,29.711-19.82,54.856-38.522,77.026
			c-9.865,11.694-21.397,22.664-29.554,35.668c-9.405,14.994-8.68,31.511-4.055,48.019c4.408,15.736,10.641,30.889,14.992,46.66
			c4.402,15.958,7.772,32.198,10.086,48.589c4.227,29.935,6.965,62.479-0.337,92.156c-3.095,12.579-8.253,25.221-17.16,34.832
			c-6.968,7.519-15.896,12.705-25.207,16.785c-19.547,8.566-41.282,14.032-52.918,33.661c-7.052,11.896-11.621,25.138-20.133,36.176
			c-7.361,9.545-17.507,16.209-29.387,18.568c-11.372,2.257-23.552,0.745-33.754-4.884c-6.135-3.385-11.094-8.415-16.859-12.332
			c-6.412-4.357-16.578-8.085-23.044-1.688c-10.797,10.683,4.344,27.506,10.765,35.814c6.917,8.95,13.526,21.003,6.338,31.814
			c-5.535,8.324-16.389,10.8-25.493,12.92c-11.674,2.718-22.238,6.055-31.713,13.716c-18.118,14.649-29.232,36.001-44.098,53.588
			c-8.103,9.587-17.405,17.954-28.537,23.881c-7.261,3.866-14.981,6.722-22.908,8.844h-20.99
			c13.06-1.712,26.109-4.748,38.035-10.401c23.679-11.223,37.438-32.74,52.535-53.072c13.171-17.739,27.834-33.457,49.994-38.907
			c9.957-2.449,24.64-3.694,30.314-13.608c7.885-13.78-8.091-26.621-14.95-36.881c-5.357-8.014-10.112-20.56-3.355-29.169
			c7.61-9.695,21.263-5.855,29.844,0.144c5.48,3.831,10.273,8.606,16.158,11.854c6.299,3.475,13.485,5.228,20.66,5.349
			c14.133,0.239,27.284-5.8,36.251-16.713c9.088-11.059,13.606-24.869,20.843-37.049c5.044-8.49,12.2-15.276,20.655-20.319
			c17.82-10.629,39.84-13.662,55.354-28.185c21.981-20.576,23.559-55.773,22.748-83.827c-0.952-32.921-6.205-65.687-15.536-97.27
			c-8.151-27.588-25.907-59.093-10.792-87.388c6.766-12.666,17.596-23.095,26.921-33.854c10.385-11.981,20.509-24.307,28.456-38.079
			c15.08-26.131,20.825-58.076,4.66-85.076C617.497,284.144,593.004,269.037,569.925,255.8z"/>
	</g>
	<g>
		<path style="fill:#E8E8E8;" d="M563.452,871.999c6.444-9.685,10.563-20.445,12.266-31.95c0.379-2.559,4.267-1.471,3.89,1.072
			c-1.749,11.817-6.056,22.97-12.673,32.914C565.504,876.187,562.008,874.169,563.452,871.999z"/>
	</g>
	<g>
		<path style="fill:#E8E8E8;" d="M931.336,904.229c-4.386-6.119-8.772-12.237-13.158-18.356c-1.515-2.114,1.982-4.13,3.484-2.036
			c4.386,6.118,8.772,12.237,13.158,18.356C936.334,904.306,932.837,906.323,931.336,904.229z"/>
	</g>
	<g>
		<path style="fill:#E8E8E8;" d="M411.43,973.372c8.095-7.619,16.19-15.238,24.286-22.857c1.89-1.779,4.748,1.069,2.853,2.853
			c-8.095,7.619-16.191,15.238-24.286,22.857C412.393,978.003,409.535,975.156,411.43,973.372z"/>
	</g>
	<g>
		<path style="fill:#E8E8E8;" d="M402.115,982.732c1.696-1.971,4.539,0.893,2.853,2.853c-4.134,4.805-8.268,9.61-12.402,14.415
			h-5.307C392.21,994.244,397.163,988.488,402.115,982.732z"/>
	</g>
	<g>
		<path style="fill:#E8E8E8;" d="M447.04,943.273c-1.806,1.872-4.657-0.983-2.853-2.853c8.597-8.914,19.134-15.432,30.926-19.202
			c2.479-0.793,3.54,3.101,1.073,3.89C465.041,928.672,455.16,934.854,447.04,943.273z"/>
	</g>
	<g>
		<path style="fill:#E8E8E8;" d="M950.291,829.184c3.878-8.972,2.388-20.109-7.031-24.688c-5.283-2.568-11.224-2.769-16.986-2.76
			c-8.398,0.014-16.757,0.854-25.022,2.318c-12.788,2.236-25.052,0.92-34.897-8.114c-8.277-7.595-14.31-17.299-22.348-25.146
			c-7.98-7.791-19.887-16.984-30.912-9.191c-9.633,6.809-12.107,20.329-10.389,31.283c2.193,13.985,11.408,23.383,25.08,26.553
			c7.794,1.807,15.923,2.443,23.842,3.477c9.024,1.178,18.048,2.355,27.073,3.533c7.972,1.04,16.364,1.41,24.032,3.941
			c6.292,2.077,12.247,5.042,18.481,7.275C932.384,841.667,944.866,841.732,950.291,829.184z M947.014,826.544
			c-2.507,7.183-8.937,10.647-16.266,9.555c-11.087-1.653-20.644-8.542-31.546-10.887c-6.7-1.442-13.709-1.909-20.502-2.796
			c-7.963-1.039-15.925-2.078-23.888-3.117c-7.549-0.985-15.177-1.737-22.672-3.086c-6.649-1.197-13.418-3.241-18.217-8.265
			c-8.443-8.84-10.047-24.238-4.847-35.086c2.371-4.946,6.584-9.812,12.421-10.221c6.8-0.477,12.788,4.689,17.503,8.977
			c6.552,5.96,11.857,13.018,17.549,19.758c5.022,5.945,10.615,11.556,17.853,14.711c8.854,3.859,18.59,3.49,27.92,1.859
			c8.921-1.58,17.965-2.344,27.027-2.146c5.445,0.119,11.754,0.766,15.778,4.895C949.183,814.855,948.802,821.423,947.014,826.544z"
			/>
	</g>
	<g>
		<path style="fill:#E8E8E8;" d="M537.634,960.827c4.625-10.094,11.022-19.478,19.279-26.953
			c9.621-8.709,21.572-14.048,31.997-21.641c20.351-14.821,35.409-36.321,44.494-59.648c4.74-12.172,7.52-24.72,9.723-37.561
			c2.21-12.879,4.589-26.323,12.075-37.342c5.967-8.783,14.883-16.074,25.698-17.394c11.202-1.367,21.603,4.224,29.361,11.912
			c8.845,8.766,13.24,19.957,19.775,30.295c6.724,10.638,21.974,21.784,32.961,9.706c8.855-9.735,6.535-23.731,2.773-35.055
			c-3.977-11.973-9.326-23.743-7.623-36.669c1.356-10.298,7.704-18.815,17.93-21.607c11.55-3.154,24.011,0.534,35.288,3.127
			c29.947,6.885,59.901,13.737,89.839,20.659c27.02,6.247,54.164,12.926,79.476,24.514c6.306,2.887,12.449,6.096,18.425,9.616
			c0.5,0.294,0.777,0.699,0.896,1.133v1.015c-0.304,1.174-1.575,2.135-2.932,1.336c-23.912-14.086-50.486-22.363-77.273-29.038
			c-28.469-7.094-57.173-13.312-85.766-19.887c-13.588-3.124-27.304-7.202-41.136-9.045c-12.272-1.635-25.748,0.813-29.815,14.23
			c-7.293,24.064,17.386,45.982,7.884,70.123c-3.461,8.794-11.203,15.611-21.101,14.734c-11.797-1.044-19.9-10.684-25.357-20.298
			c-6.165-10.862-11.321-22.002-21.445-29.878c-9.926-7.722-22.628-9.603-33.455-2.485c-22.983,15.109-20.913,47.674-27.681,71.217
			c-6.438,22.394-17.743,43.611-33.774,60.616c-8.247,8.748-17.68,15.967-27.946,22.181c-11.029,6.676-21.54,13.382-29.436,23.793
			c-11.663,15.38-17.215,34.44-19.849,53.466h-4.061C528.695,986.5,531.956,973.222,537.634,960.827z"/>
	</g>
	<g>
		<path style="fill:#E8E8E8;" d="M3.446,197.657c-0.049,1.093-0.886,2.017-2.017,2.017c-0.476,0-0.952,0-1.429,0v-4.034
			c0.476,0,0.953,0,1.429,0C2.484,195.64,3.494,196.568,3.446,197.657z"/>
	</g>
	<g>
		<path style="fill:#E8E8E8;" d="M320.122,986.008c14.103-16.858,25.139-35.665,45.46-45.861
			c12.081-6.062,25.518-9.828,36.175-18.448c4.294-3.473,8.105-7.665,10.531-12.664c2.786-5.74,3.004-12.12,3.222-18.372
			c0.285-8.193,0.089-18.102,6.404-24.306c8.485-8.336,21.127-3.308,31.311-2.402c12.201,1.086,24.889-0.536,36.068-5.701
			c11.973-5.531,20.407-14.837,26.816-26.19c6.003-10.633,10.16-22.42,17.958-31.952c6.309-7.712,14.365-13.665,22.663-19.063
			c8.856-5.76,18.115-11.002,26.219-17.833c9.529-8.033,15.899-18.148,22.182-28.776c6.527-11.038,12.851-22.254,21.013-32.198
			c8.286-10.096,19.803-18.367,24.688-30.86c5.445-13.925,1.244-29.583-2.899-43.279c-4.226-13.97-9.836-27.505-16.739-40.364
			c-11.757-21.902-28.603-42.732-31.847-68.118c-3.231-25.287,11-46.703,23.834-67.106c14.819-23.56,25.734-49.004,31.313-76.339
			c4.366-21.398,8.389-46.456-3.379-66.218c-6.513-10.938-16.05-20.191-25.149-28.975c-10.232-9.879-21.112-19.09-32.479-27.635
			c-21.987-16.528-45.698-30.562-70.468-42.486c-13.011-6.264-26.217-12.14-38.972-18.924c-12.388-6.589-24.055-14.281-35.393-22.53
			c-11.335-8.246-22.366-16.901-33.751-25.079c-9.762-7.012-19.511-13.862-28.603-21.75C351.665,92.53,324.972,52.444,315.064,7.331
			c-0.535-2.434-1.008-4.88-1.442-7.331h4.198c7.275,39.027,27.052,74.903,54.638,103.819c17.911,18.774,39.18,32.848,59.802,48.356
			c11.677,8.782,23.299,17.677,35.584,25.604c12.006,7.747,24.733,14.195,37.621,20.328c25.596,12.179,50.743,24.574,74.275,40.499
			c22.406,15.163,43.428,32.577,61.764,52.505c7.044,7.655,13.61,15.857,17.422,25.643c3.605,9.254,4.193,19.203,3.632,29.029
			c-1.491,26.124-7.853,51.989-18.269,75.965c-5.319,12.246-11.899,23.744-19.021,35.016c-7.247,11.47-14.918,23.051-19.178,36.04
			c-9.129,27.833,4.741,52.544,18.727,75.87c14.134,23.571,26.868,49.055,31.479,76.44c1.974,11.719,1.462,23.68-4.841,34.061
			c-6.541,10.772-16.89,18.62-24.533,28.546c-15.149,19.674-23.465,44.344-43.326,60.148
			c-16.552,13.171-37.706,21.211-49.826,39.371c-7.22,10.82-11.286,23.435-18.708,34.176c-6.393,9.253-14.836,16.444-25.159,20.959
			c-10.478,4.583-22.114,6.388-33.506,5.831c-11.169-0.547-29.372-8.112-34.821,6.027c-3.707,9.618-0.993,20.624-3.489,30.549
			c-2.592,10.309-10.367,18.179-19.048,23.823c-11.288,7.339-24.53,10.826-36.145,17.554c-9.906,5.738-17.581,14.097-24.608,22.996
			c-8.349,10.574-16.214,22.064-26.249,30.844h-6.184C311.161,995.997,315.839,991.127,320.122,986.008z"/>
	</g>
	<g>
		<path style="fill:#E8E8E8;" d="M601.428,775.354c5.143-11.059,11.246-21.593,18.28-31.557c1.486-2.104,4.985-0.091,3.483,2.036
			c-7.034,9.964-13.137,20.498-18.28,31.557C603.818,779.742,600.339,777.695,601.428,775.354z"/>
	</g>
	<g>
		<path style="fill:#E8E8E8;" d="M0,943.516c14.438-0.704,28.931-2.534,43.135-3.726c34.361-2.883,70.89-1.902,104.17,7.876
			c16.666,4.897,33.091,11.8,50.467,13.793c14.259,1.635,28.729-0.556,42.338-4.888c28.917-9.203,52.398-27.316,71.714-50.275
			c4.354-5.175,8.853-10.301,14.266-14.404c6.134-4.65,12.867-6.888,20.292-8.597c7.944-1.828,18.261-4.229,21.405-12.939
			c3.153-8.734-6.972-17.052-12.287-22.705c-11.025-11.726-22.972-23.195-29.553-38.175c-5.06-11.517-8.048-28.127,0.346-38.953
			c8.214-10.595,23.325-8.428,33.669-2.638c6.838,3.828,12.768,9.085,19.223,13.491c6.39,4.363,13.112,8.303,20.167,11.493
			c14.081,6.367,30.539,10.258,45.638,5.166c14.513-4.894,23.535-17.38,32.282-29.162c7.519-10.127,15.217-19.708,26.847-25.219
			c10.403-4.93,21.787-7.001,32.818-10.012c11.551-3.153,23.226-7.674,30.099-18.08c9.341-14.142,10.323-33.198,11.28-49.602
			c2.061-35.341-2.317-70.99-12.946-104.761c-9.214-29.276-25.607-61.331-17.152-92.73c7.809-28.998,36.551-41.662,53.312-64.346
			c15.399-20.841,18.984-48.922,11.935-73.566c-3.593-12.563-10.014-24.354-19.12-33.774
			c-11.363-11.756-26.294-19.229-40.943-26.034c-32.775-15.225-66.281-28.898-100.299-41.09
			c-30.199-10.824-61.955-19.26-89.696-35.826c-22.012-13.145-38.979-31.833-52.642-53.324
			c-26.121-41.084-40.373-90.62-74.485-126.376c-4.94-5.178-10.278-9.906-16-14.135h6.528
			c32.667,26.545,49.878,68.03,68.677,104.927c11.395,22.365,23.865,44.696,41.413,62.886c22.11,22.92,51.435,35.172,81.006,45.432
			c33.447,11.605,66.719,23.35,99.352,37.131c16.207,6.844,32.47,13.794,48.194,21.698c13.427,6.749,26.477,14.935,36.056,26.718
			c15.585,19.169,21.903,44.917,18.573,69.249c-1.693,12.373-5.939,24.466-12.831,34.916c-7.606,11.532-18.346,20.339-28.531,29.477
			c-11.564,10.377-22.456,21.688-26.609,37.108c-4.472,16.605-1.074,34.096,3.668,50.243c4.853,16.528,11.43,32.49,16.084,49.081
			c4.647,16.564,7.81,33.534,9.523,50.65c1.785,17.844,1.942,35.848,0.449,53.72c-1.267,15.174-2.891,31.915-11.658,44.872
			c-13.501,19.951-40.274,19.371-60.588,27.534c-13.703,5.506-22.008,16.063-30.576,27.623
			c-8.125,10.962-16.737,21.982-29.675,27.417c-27.91,11.726-58.624-5.453-80.552-21.903c-6.355-4.767-13.148-9.913-21.149-11.37
			c-8.774-1.597-17.59,1.636-20.765,10.489c-6.21,17.314,4.242,36.111,15.045,49.057c5.37,6.435,11.308,12.36,17.031,18.475
			c4.805,5.134,11.311,10.955,13.094,18.037c3.596,14.281-12.98,21.031-23.742,23.525c-8.849,2.052-16.382,4.777-23.216,10.96
			c-5.501,4.977-10.077,10.865-14.856,16.51c-9.114,10.764-19.737,20.061-31.494,27.848c-23.605,15.634-53.01,26.545-81.672,23.102
			c-16.616-1.996-32.326-8.249-48.238-13.082c-17.806-5.409-36.219-7.896-54.759-9.094c-18.146-1.173-36.291-0.736-54.394,0.889
			C26.46,945.312,13.254,946.889,0,947.55V943.516z"/>
	</g>
	<g>
		<path style="fill:#E8E8E8;" d="M534.806,898.073c-2.539,0.434-3.63-3.453-1.072-3.89c7.232-1.236,13.345-4.906,17.855-10.691
			c1.594-2.045,4.431,0.828,2.853,2.853C549.565,892.6,542.623,896.737,534.806,898.073z"/>
	</g>
	<g>
		<path style="fill:#E8E8E8;" d="M525.224,143.175c9.475,6.578,16.859,15.452,21.415,26.066c1.013,2.36-2.461,4.418-3.484,2.036
			c-4.276-9.962-11.05-18.427-19.968-24.619C521.069,145.188,523.084,141.69,525.224,143.175z"/>
	</g>
	<g>
		<path style="fill:#E8E8E8;" d="M553.885,185.556c2.413,9.039,4.825,18.078,7.238,27.117c0.67,2.511-3.22,3.582-3.89,1.072
			c-2.413-9.039-4.825-18.078-7.238-27.117C549.325,184.117,553.215,183.046,553.885,185.556z"/>
	</g>
	<g>
		<path style="fill:#E8E8E8;" d="M648.266,543.863c-2.686-13.345-3.741-26.89-3.089-40.49c0.124-2.585,4.159-2.599,4.034,0
			c-0.635,13.242,0.328,26.419,2.945,39.417C652.666,545.326,648.778,546.41,648.266,543.863z"/>
	</g>
	<g>
		<path style="fill:#E8E8E8;" d="M691.932,583.948c-5.986-13.983-7.247-29.418-8.446-44.416c-1.353-16.932-2.145-33.942-2.123-50.93
			c0.032-25.445,5.479-57.942,33.146-67.543c15.167-5.263,31.298-0.327,46.589,1.595c15.715,1.975,31.739,0.145,46.547-5.517
			c7.127-2.725,15.785-6.195,19.514-13.334c2.654-5.081,2.995-11.122,3.818-16.691c1.423-9.636,5.63-20.233,17.137-20.201
			c13.123,0.037,21.076,11.716,28.231,20.945c4.565,5.888,9.749,11.257,17.296,12.912c7.661,1.68,15.681-0.253,23.197-1.782
			c27.032-5.498,58.999-6.188,79.13,15.981c1.476,1.626,2.818,3.339,4.031,5.131v8.066c-12.113-26.421-45.315-31.022-71.243-27.239
			c-12.932,1.887-27.397,7.579-40.245,2.478c-11.791-4.682-16.481-16.964-25.159-25.202c-4.652-4.417-11.812-8.721-18.468-6.814
			c-5.906,1.692-8.231,7.331-9.349,12.829c-2.144,10.544-1.747,21.567-11.085,28.776c-10.519,8.121-25.501,12.023-38.444,13.683
			c-15.207,1.95-29.483-0.948-44.473-2.987c-14.796-2.013-29.328-0.648-40.166,10.618c-10.027,10.423-14.116,24.741-15.377,38.827
			c-1.406,15.706-0.526,31.759,0.285,47.478c0.803,15.55,1.468,31.526,4.729,46.79c2.864,13.404,8.706,25.509,18.669,35.049
			c9.032,8.649,20.329,14.717,32.057,18.858c27.924,9.859,57.853,8.231,86.946,10.534c14.597,1.156,28.947,3.543,42.951,7.873
			c12.62,3.902,24.841,8.971,36.936,14.252c25.021,10.924,49.972,23.273,77.085,28.059c4.755,0.839,9.541,1.391,14.35,1.679v4.031
			c-55.869-3.43-102.133-42.729-157.279-50.379c-31.237-4.333-63.47-1.059-94.105-9.645
			C724.992,621.088,701.943,607.333,691.932,583.948z"/>
	</g>
	<g>
		<path style="fill:#E8E8E8;" d="M659.323,446.831c-3.587,12.907-5.984,26.063-7.13,39.412c-0.22,2.567-4.257,2.591-4.034,0
			c1.177-13.705,3.591-27.23,7.275-40.484C656.128,443.261,660.021,444.322,659.323,446.831z"/>
	</g>
	<g>
		<path style="fill:#E8E8E8;" d="M421.055,103.005c10.764,7.59,22.492,13.47,35.037,17.492c2.463,0.79,1.41,4.686-1.072,3.89
			c-12.864-4.125-24.958-10.113-36.001-17.899C416.914,105.004,418.927,101.504,421.055,103.005z"/>
	</g>
	<g>
		<path style="fill:#E8E8E8;" d="M673.813,382.847c0.674-2.504,4.567-1.442,3.89,1.073c-3.57,13.27-7.139,26.539-10.709,39.809
			c-0.674,2.504-4.567,1.442-3.89-1.073C666.674,409.386,670.243,396.117,673.813,382.847z"/>
	</g>
	<g>
		<path style="fill:#E8E8E8;" d="M659.608,708.012c-11.036,5.326-19.896,13.792-25.68,24.599c-1.225,2.29-4.71,0.255-3.483-2.036
			c6.077-11.355,15.525-20.447,27.127-26.047C659.9,703.405,661.948,706.883,659.608,708.012z"/>
	</g>
	<g>
		<path style="fill:#E8E8E8;" d="M666.105,588.24c-5.999-9.853-10.816-20.306-14.444-31.255c-0.818-2.47,3.076-3.529,3.89-1.073
			c3.521,10.628,8.216,20.73,14.037,30.292C670.943,588.427,667.455,590.457,666.105,588.24z"/>
	</g>
	<g>
		<path style="fill:#E8E8E8;" d="M762.298,70.513c-0.562-10.537-2.31-20.881-5.208-31.027c-0.714-2.501,3.177-3.569,3.89-1.073
			c2.995,10.486,4.771,21.211,5.352,32.099C766.471,73.108,762.436,73.1,762.298,70.513z"/>
	</g>
	<g>
		<path style="fill:#E8E8E8;" d="M695.031,0c9.481,28.694,4.216,61.595-13.305,86.188c-9.192,12.902-22.388,21.869-30.593,35.608
			c-8.286,13.875-12.297,29.81-13.71,45.805c-0.725,8.201-0.179,16.526-1.226,24.686c-0.865,6.739-3.571,13.465-9.762,16.958
			c-13.64,7.695-28.598-2.674-34.176-15.252c-7.39-16.665-5.462-36.488,0.44-53.24c3.093-8.78,7.104-17.678,7.2-27.149
			c0.095-9.381-4.297-17.884-10.26-24.887c-12.837-15.076-31.829-23.634-42.608-40.67C538.041,33.838,534.88,16.443,537.984,0h4.096
			c-3.016,14.893-0.516,30.646,7.128,43.854c8.765,15.144,24.088,23.633,36.636,35.156c11.185,10.27,19.77,23.655,17.731,39.406
			c-1.115,8.61-4.653,16.607-7.455,24.75c-3.136,9.114-4.818,18.515-4.493,28.175c0.47,13.964,6.009,33.996,21.861,36.131
			c-2.869-8.48-3.421-17.338-1.779-26.192c0.473-2.549,4.362-1.469,3.89,1.072c-1.589,8.568-0.771,17.121,2.212,25.268
			c18.667-1.213,14.446-26.613,15.525-39.397c1.201-14.233,4.274-28.353,10.467-41.287c3.034-6.338,6.824-12.275,11.252-17.73
			c4.744-5.844,10.549-10.498,15.692-15.943C693.822,68.829,701.701,31.712,690.782,0H695.031z"/>
	</g>
	<g>
		<path style="fill:#E8E8E8;" d="M858.413,6.773c1.948,4.375,0.964,9.025-0.851,13.252C851.875,13.081,845.886,6.404,839.607,0
			h-5.685c7.648,7.6,14.88,15.595,21.678,23.975c-2.771,5.028-6.301,9.817-9.306,14.826C835.647,24.694,823.288,12.363,810.716,0
			h-5.554c0.098,0.216,0.235,0.429,0.438,0.628c13.622,13.386,27.193,26.571,38.555,42.002c-1.91,3.714-3.376,7.604-3.888,11.85
			c-0.414,4.738-0.115,10.197-2.414,14.512c-0.075-0.115-0.163-0.228-0.269-0.338c-17.58-18.085-35.161-36.169-52.741-54.254
			c0.587-1.142,1.267-2.27,2.055-3.379c3.476-4.892,8.238-8.457,13.54-11.02h-7.715c-7.913,5.238-13.793,12.772-14.755,23.278
			c-1.04,11.368,6.2,21.649,11.499,31.078c3.131,5.571,6.257,11.144,9.394,16.712c2.119,3.762,4.274,7.911,8.234,10.041
			c4.337,2.333,9.51,1.428,14.128,0.654c4.299-0.721,8.62-1.659,12.536-3.641c9.546-4.832,9.718-14.209,10.542-23.642
			c1.245-10.338,9.478-18.653,14.766-27.765c1.021-0.297,1.847-1.553,1.482-2.753c2.101-4.247,3.386-8.718,2.894-13.685
			c-0.391-3.956-2.229-7.383-4.777-10.277h-5.546C855.374,1.879,857.24,4.138,858.413,6.773z M835.555,72.024
			c-2.913,2.786-7.031,4.095-10.878,4.976c-4.604,1.055-11.123,2.918-15.544,0.625c-4.476-2.322-6.791-8.603-9.135-12.772
			c-5.011-8.914-10.594-17.713-14.919-26.985c-3.033-6.502-3.82-13.107-1.894-19.387c17.182,17.675,34.364,35.351,51.547,53.026
			C834.991,71.772,835.271,71.933,835.555,72.024z"/>
	</g>
	<g>
		<path style="fill:#E8E8E8;" d="M658.726,985.71c6.953-5.391,14.428-10.228,20.599-16.553c6.531-6.694,9.718-14.633,12.202-23.506
			c2.429-8.678,5.068-16.888,9.909-24.568c4.475-7.1,9.972-13.512,15.449-19.846c5.23-6.048,10.979-12.286,19.136-14.025
			c8.375-1.785,17.421,0.332,25.763,1.453c17.714,2.381,35.48,5.161,52.59,10.467c16.578,5.142,32.045,12.816,45.654,23.641
			c13.719,10.912,25.298,24.188,36.65,37.463c11.433,13.37,23.68,27.841,37.608,39.764h-6.129
			c-6.206-5.523-12.036-11.46-17.493-17.494c-22.694-25.093-42.756-53.96-73.539-69.877c-15.699-8.117-32.939-12.753-50.235-15.995
			c-8.786-1.647-17.635-2.938-26.495-4.121c-8.807-1.176-19.458-3.967-27.851,0.132c-7.302,3.566-12.611,11.093-17.702,17.182
			c-5.568,6.66-10.888,13.689-14.467,21.649c-3.714,8.259-4.967,17.354-8.378,25.725c-2.942,7.219-7.695,13.163-13.508,18.292
			c-6.642,5.861-14.126,10.673-20.961,16.297c-3.159,2.599-6.23,5.333-9.158,8.209h-5.655
			C647.66,994.801,653.114,990.062,658.726,985.71z"/>
	</g>
	<g>
		<path style="fill:#E8E8E8;" d="M382.93,67.582c8.95,8.672,17.9,17.344,26.85,26.017c1.868,1.81-0.986,4.661-2.852,2.853
			c-8.95-8.672-17.9-17.344-26.85-26.016C378.209,68.624,381.063,65.773,382.93,67.582z"/>
	</g>
	<g>
		<path style="fill:#E8E8E8;" d="M172.18,997.807c5.246,0.83,10.409,1.598,15.552,2.193h-31.846
			c-5.651-0.49-11.337-0.709-17.108-0.452c-2.2,0.098-4.396,0.26-6.59,0.452h-23.333C129.407,995.275,150.951,994.45,172.18,997.807
			z"/>
	</g>
	<g>
		<path style="fill:#E8E8E8;" d="M359.729,35.536c3.624,6.505,7.247,13.01,10.871,19.515c1.265,2.27-2.219,4.307-3.483,2.036
			c-3.624-6.505-7.247-13.01-10.871-19.515C354.981,35.302,358.464,33.265,359.729,35.536z"/>
	</g>
	<g>
		<path style="fill:#E8E8E8;" d="M720.051,0h4.232c3.254,10.097,7.854,19.804,9.936,30.241c1.877,9.414,1.199,18.955-2.256,27.935
			c-6.938,18.035-21.711,31.667-34.609,45.49c-15.112,16.196-28.025,34.597-36.282,55.25c-3.92,9.804-6.797,20.055-8.312,30.511
			c-1.399,9.66-1.248,19.578-3.7,29.076c-2.096,8.119-6.536,15.856-14.191,19.842c-7.458,3.883-16.333,3.588-24.141,0.93
			c-18.257-6.214-28.824-23.176-34.316-40.792c-6.666-21.38-5.548-44.201-11.869-65.614c-6.324-21.421-22.185-36.021-41.037-46.892
			c-21.482-12.388-45.629-20.011-65.4-35.328C442.492,38.553,429.715,20.167,429.643,0h4.062
			c0.183,18.049,11.042,34.441,24.764,45.814c16.799,13.924,37.723,21.529,56.986,31.257c16.695,8.431,33.234,19.037,43.857,34.822
			c11.721,17.417,12.91,38.768,15.532,58.951c2.541,19.56,7.245,42.072,22.502,55.952c13.289,12.089,37.072,16.173,45.781-3.323
			c3.912-8.758,3.988-18.76,4.901-28.146c0.953-9.793,2.942-19.435,5.997-28.79c6.171-18.892,16.222-36.312,28.5-51.876
			c13.32-16.884,30.973-30.684,41.689-49.545c5.661-9.963,8.343-21.04,6.368-32.447C728.625,21.357,723.453,10.909,720.051,0z"/>
	</g>
	<g>
		<path style="fill:#E8E8E8;" d="M342.641,2.12c4.972,6.194,8.774,12.992,11.406,20.486c0.862,2.455-3.034,3.51-3.89,1.073
			c-2.392-6.809-5.849-13.077-10.369-18.706C338.179,2.967,341.016,0.095,342.641,2.12z"/>
	</g>
	<g>
		<path style="fill:#E8E8E8;" d="M470.522,128.615c12.024,3.529,24.279,6.139,36.71,7.738c2.539,0.326,2.572,4.365,0,4.034
			c-12.797-1.646-25.4-4.248-37.782-7.882C466.963,131.776,468.021,127.881,470.522,128.615z"/>
	</g>
	<g>
		<path style="fill:#E8E8E8;" d="M674.344,598.237c5.652,8.551,10.195,17.688,13.665,27.331c0.881,2.447-3.016,3.501-3.89,1.073
			c-3.354-9.319-7.799-18.107-13.259-26.367C669.424,598.101,672.917,596.078,674.344,598.237z"/>
	</g>
	<g>
		<path style="fill:#E8E8E8;" d="M720.798,663.054c-6.256-3.932-11.964-8.518-17.119-13.687c-0.29,16.717-8.707,32.27-22.469,41.747
			c-2.143,1.476-4.163-2.019-2.036-3.484c12.645-8.708,20.297-23.214,20.479-38.547c0.015-1.236,0.939-1.877,1.898-1.937
			c-2.574-2.749-5.016-5.634-7.286-8.688c-1.55-2.085,1.95-4.099,3.484-2.036c6.866,9.238,15.345,17.024,25.086,23.147
			C725.027,660.949,723.005,664.441,720.798,663.054z"/>
	</g>
	<g>
		<path style="fill:#E8E8E8;" d="M683.211,366.207c-0.228,2.566-4.265,2.59-4.034,0c1.101-12.368,2.201-24.736,3.302-37.103
			c0.228-2.566,4.265-2.59,4.034,0C685.412,341.472,684.312,353.84,683.211,366.207z"/>
	</g>
	<g>
		<path style="fill:#E8E8E8;" d="M683.333,199.021c6.814-8.996,14.944-16.661,24.366-22.879c2.173-1.434,4.196,2.058,2.036,3.484
			c-8.811,5.815-16.542,13.013-22.918,21.431C685.269,203.1,681.764,201.092,683.333,199.021z"/>
	</g>
	<g>
		<path style="fill:#E8E8E8;" d="M633.779,263.245c12.424,6.333,24.02,14.06,34.656,23.038c-1.078-2.695-2.121-5.404-3.115-8.135
			c-0.889-2.444,3.008-3.497,3.89-1.073c4.392,12.074,9.653,23.772,15.749,35.081c1.232,2.285-2.25,4.325-3.484,2.036
			c-3.61-6.697-6.919-13.538-9.948-20.503c-0.451-0.001-0.915-0.152-1.336-0.531c-11.619-10.486-24.508-19.322-38.449-26.429
			C629.43,265.549,631.469,262.068,633.779,263.245z"/>
	</g>
	<g>
		<path style="fill:#E8E8E8;" d="M766.985,83.387c0.146,12.753-2.741,25.139-8.435,36.547c-1.159,2.323-4.641,0.282-3.483-2.036
			c5.377-10.773,8.022-22.475,7.884-34.51C762.922,80.791,766.956,80.789,766.985,83.387z"/>
	</g>
	<g>
		<path style="fill:#E8E8E8;" d="M725.029,163.783c10.31-4.921,18.506-13.269,22.94-23.839c0.989-2.359,4.895-1.322,3.89,1.072
			c-4.841,11.541-13.466,20.843-24.794,26.25C724.733,168.379,722.684,164.902,725.029,163.783z"/>
	</g>
	<g>
		<path style="fill:#E8E8E8;" d="M737.928,664.991c12.392,5.581,25.635,8.725,39.208,9.369c2.585,0.123,2.6,4.158,0,4.034
			c-14.323-0.68-28.172-4.032-41.244-9.92C733.528,667.41,735.577,663.932,737.928,664.991z"/>
	</g>
	<g>
		<path style="fill:#E8E8E8;" d="M664.257,263.82c-2.912-17.13-0.721-34.401,6.361-50.265c1.056-2.366,4.534-0.317,3.484,2.036
			c-6.599,14.784-8.667,31.198-5.954,47.156C668.578,265.287,664.691,266.378,664.257,263.82z"/>
	</g>
	<g>
		<path style="fill:#E8E8E8;" d="M756.614,24.796c0.076,2.597-3.959,2.595-4.034,0c-0.268-9.232-3.65-17.864-9.72-24.796h5.165
			C753.372,7.187,756.351,15.708,756.614,24.796z"/>
	</g>
	<g>
		<path style="fill:#E8E8E8;" d="M863.597,690.848c9.014,3.126,18.284,4.829,27.825,5.061c2.592,0.063,2.601,4.097,0,4.034
			c-9.883-0.24-19.555-1.965-28.897-5.205C860.087,693.893,861.135,689.995,863.597,690.848z"/>
	</g>
	<g>
		<path style="fill:#E8E8E8;" d="M913.193,703.862c13.926,2.744,27.851,5.489,41.777,8.233c2.545,0.502,1.468,4.391-1.072,3.89
			c-13.925-2.744-27.851-5.489-41.777-8.233C909.576,707.251,910.653,703.362,913.193,703.862z"/>
	</g>
	<g>
		<path style="fill:#E8E8E8;" d="M772.515,355.081c5.828,1.121,11.78-2.62,13.815-8.056c0.902-2.409,4.803-1.366,3.89,1.073
			c-2.676,7.147-9.934,12.15-17.709,11.046c-8.304-1.179-14.146-9.079-13.764-17.262c0.121-2.585,4.155-2.6,4.034,0
			C762.502,347.862,766.377,353.9,772.515,355.081z"/>
	</g>
	<g>
		<path style="fill:#E8E8E8;" d="M908.75,563.067c-7.193-6.044-17.576-4.34-26.237-4.209c-15.57,0.235-31.735-3.352-44.185-13.113
			c-10.919-8.56-18.273-22.476-17.42-36.538c0.808-13.335,9.199-24.128,20.353-30.854c12.585-7.588,26.787-9.751,41.081-11.718
			c9.164-1.261,17.83-3.222,25.771-8.167c6.675-4.156,12.856-8.723,20.596-10.693c14.721-3.746,31.231,0.323,42.188,10.93
			c9.221,8.928,15.856,25.355,29.103,28.996v4.082c-10.1-2.485-16.576-11.044-22.718-19.173
			c-3.932-5.204-7.918-10.584-13.255-14.449c-5.633-4.079-12.39-6.642-19.294-7.443c-7-0.812-14.232,0.082-20.709,2.902
			c-7.561,3.293-13.72,9.055-21.344,12.259c-13.502,5.675-28.693,4.809-42.662,8.855c-12.69,3.676-25.864,10.506-31.97,22.846
			c-6.556,13.247-2.217,29.323,7.337,39.934c10.81,12.007,27.453,16.868,43.169,17.29c12.847,0.345,30.614-3.091,37.595,11.196
			c1.376,2.817,1.849,6.03,1.105,9.094c-1.034,4.259-4.351,7.673-3.108,12.312c3.038,11.333,17.244,10.448,26.185,9.111
			c19.914-2.979,39.784-6.296,59.67-9.462v4.057c-18.527,2.94-37.054,5.886-55.582,8.819c-7.907,1.251-16.629,2.923-24.245-0.49
			c-5.537-2.481-10.386-7.99-10.401-14.316c-0.009-3.715,2.09-6.51,3.222-9.89C914.56,570.565,912.356,566.097,908.75,563.067z"/>
	</g>
	<g>
		<path style="fill:#E8E8E8;" d="M809.74,682.747c9.974,4.726,20.844,6.404,31.792,5.129c2.574-0.3,2.552,3.737,0,4.034
			c-11.679,1.361-23.217-0.652-33.828-5.68C805.359,685.12,807.404,681.64,809.74,682.747z"/>
	</g>
	<g>
		<path style="fill:#E8E8E8;" d="M970.787,725.625c-2.438-0.846-1.389-4.745,1.073-3.89c11.779,4.087,21.582,11.953,28.14,22.256
			v8.33C994.385,739.846,983.735,730.118,970.787,725.625z"/>
	</g>
	<g>
		<path style="fill:#E8E8E8;" d="M948.856,523.865c0.617-4.479,1.237-9.47-1.683-13.324c-1.192-1.573-2.754-2.673-4.491-3.189
			c-0.442-0.457-1.09-0.718-1.881-0.547c-0.422,0.092-0.848,0.18-1.276,0.266c-0.457,0.05-0.917,0.137-1.379,0.267
			c-6.124,1.151-12.774,1.978-18.361,4.426c-3.776,1.654-7.25,5.727-5.781,10.129c1.669,5.004,7.784,5.042,12.106,5.135
			c7.162,0.155,14.29-0.503,21.338-1.756C948.055,525.166,948.77,524.49,948.856,523.865z M945.104,521.588
			c-4.559,0.757-9.145,1.247-13.77,1.384c-3.069,0.091-9.93,1.165-12.443-1.045c-5.757-5.062,7.422-7.854,9.997-8.413
			c3.856-0.837,7.712-1.674,11.569-2.511C945.324,510.634,945.483,517.577,945.104,521.588z"/>
	</g>
	<g>
		<path style="fill:#E8E8E8;" d="M950.552,643.782c-18.038-3.144-37.232-8.463-51.585-20.38
			c-9.578-7.952-16.014-19.014-26.059-26.514c-8.343-6.23-17.556-8.622-27.864-8.032c-11.401,0.652-22.574,2.906-34.036,2.938
			c-13.196,0.037-26.404-1.647-39.266-4.55c-20.321-4.587-46.186-11.74-57.633-30.922c-6.378-10.689-6.332-23.776-5.09-35.782
			c1.22-11.795,4.235-23.792,11.312-33.514c13.67-18.78,37.558-25.116,59.579-26.919c14.309-1.171,28.701-0.794,42.996-2.181
			c13.305-1.292,26.475-4.044,39.21-8.102c12.525-3.991,24.621-9.266,36.056-15.752c10.491-5.95,20.523-12.811,32.888-13.842
			c24.849-2.073,45.399,15.443,60.043,33.475c3.057,3.764,5.989,7.626,8.897,11.506v5.625c-0.526-0.065-1.041-0.323-1.43-0.844
			c-14.247-19.08-30.345-40.051-55.107-44.995c-13.039-2.603-24.25,1.449-35.414,7.966c-10.2,5.954-20.461,11.518-31.44,15.928
			c-23.478,9.431-47.948,13.348-73.124,14.182c-23.997,0.795-50.432,1.01-70.331,16.486c-9.705,7.548-15.53,18.144-18.291,30.005
			c-2.739,11.77-4.083,25.788-0.485,37.49c6.909,22.471,34.622,30.495,54.856,35.457c12.716,3.118,25.75,5.012,38.85,5.23
			c11.241,0.187,22.173-1.584,33.317-2.633c8.333-0.784,16.629-0.454,24.404,2.931c10.529,4.582,18.208,13.199,25.572,21.696
			c6.283,7.25,12.726,13.369,21.243,17.901c8.284,4.409,17.288,7.375,26.376,9.618c18.318,4.522,37.363,6.19,56.201,6.192
			c1.601,0,3.201-0.025,4.801-0.055v4.05C983.463,647.768,966.832,646.62,950.552,643.782z"/>
	</g>
	<g>
		<path style="fill:#E8E8E8;" d="M118.571,725.388c-2.596,0-2.6-4.034,0-4.034C121.167,721.353,121.171,725.388,118.571,725.388z"/>
	</g>
	<g>
		<path style="fill:#E8E8E8;" d="M109.762,365.915c2.023-1.58,4.898,1.256,2.853,2.853c-5.892,4.602-10.446,10.329-13.589,17.113
			c-1.09,2.353-4.569,0.307-3.484-2.036C98.811,376.789,103.633,370.703,109.762,365.915z"/>
	</g>
	<g>
		<path style="fill:#E8E8E8;" d="M188.571,196.817c-2.596,0-2.6-4.034,0-4.034C191.167,192.783,191.171,196.817,188.571,196.817z"/>
	</g>
	<g>
		<path style="fill:#E8E8E8;" d="M115.716,257.655c-0.739-0.805-0.797-2.055,0-2.853c0.476-0.476,0.952-0.952,1.429-1.429
			c0.747-0.747,2.116-0.803,2.853,0c0.739,0.805,0.797,2.055,0,2.853c-0.476,0.476-0.953,0.952-1.428,1.428
			C117.822,258.402,116.453,258.458,115.716,257.655z"/>
	</g>
	<g>
		<path style="fill:#E8E8E8;" d="M147.143,265.64c2.596,0,2.6,4.034,0,4.034C144.547,269.674,144.542,265.64,147.143,265.64z"/>
	</g>
	<g>
		<path style="fill:#E8E8E8;" d="M126.07,446.329c5.517,1.564,11.104,2.563,16.826,2.963c2.575,0.18,2.595,4.216,0,4.034
			c-6.079-0.426-12.034-1.445-17.899-3.108C122.504,449.513,123.563,445.619,126.07,446.329z"/>
	</g>
	<g>
		<path style="fill:#E8E8E8;" d="M80.84,259.086c0-0.476,0-0.952,0-1.428c0-1.055,0.928-2.066,2.017-2.017
			c1.093,0.049,2.017,0.886,2.017,2.017c0,0.476,0,0.952,0,1.428c0,1.055-0.928,2.066-2.017,2.017
			C81.764,261.054,80.84,260.216,80.84,259.086z"/>
	</g>
	<g>
		<path style="fill:#E8E8E8;" d="M110.786,445.732c-10.185-2.663-19.867-6.72-28.909-12.111c-2.228-1.328-0.201-4.818,2.036-3.483
			c8.756,5.22,18.083,9.126,27.946,11.704C114.369,442.498,113.304,446.391,110.786,445.732z"/>
	</g>
	<g>
		<path style="fill:#E8E8E8;" d="M45.572,400.694c4.502,3.525,9.144,6.851,13.907,9.997c-0.015-1.019,0.632-2.048,1.946-2.046
			c8.751,0.014,16.661-4.471,21.127-12.002c1.324-2.231,4.812-0.204,3.484,2.036c-5,8.429-13.804,13.625-23.544,13.967
			c2.736,1.743,5.507,3.434,8.319,5.059c2.247,1.298,0.218,4.786-2.036,3.483c-9.106-5.261-17.776-11.158-26.055-17.642
			C40.677,401.947,43.55,399.11,45.572,400.694z"/>
	</g>
	<g>
		<path style="fill:#E8E8E8;" d="M187.143,236.817c-2.596,0-2.6-4.034,0-4.034C189.738,232.783,189.743,236.817,187.143,236.817z"/>
	</g>
	<g>
		<path style="fill:#E8E8E8;" d="M180,212.531c-2.596,0-2.6-4.034,0-4.034C182.595,208.497,182.6,212.531,180,212.531z"/>
	</g>
	<g>
		<path style="fill:#E8E8E8;" d="M180,141.354c2.596,0,2.6,4.034,0,4.034C177.404,145.389,177.399,141.354,180,141.354z"/>
	</g>
	<g>
		<path style="fill:#E8E8E8;" d="M187.277,310.242c-9.76,6.301-19.52,12.601-29.28,18.902c-2.188,1.412-4.212-2.079-2.036-3.483
			c9.76-6.301,19.52-12.601,29.28-18.902C187.428,305.347,189.453,308.837,187.277,310.242z"/>
	</g>
	<g>
		<path style="fill:#E8E8E8;" d="M67.143,272.783c2.596,0,2.6,4.034,0,4.034C64.547,276.817,64.543,272.783,67.143,272.783z"/>
	</g>
	<g>
		<path style="fill:#E8E8E8;" d="M165.714,131.103c-2.596,0-2.6-4.034,0-4.034C168.31,127.069,168.314,131.103,165.714,131.103z"/>
	</g>
	<g>
		<path style="fill:#E8E8E8;" d="M174.285,261.103c-2.596,0-2.6-4.034,0-4.034C176.881,257.069,176.885,261.103,174.285,261.103z"/>
	</g>
	<g>
		<path style="fill:#E8E8E8;" d="M153.6,62.257c8.361,3.02,15.756,7.742,21.947,14.129c1.808,1.865-1.042,4.721-2.853,2.853
			c-5.697-5.878-12.464-10.309-20.167-13.092C150.105,65.272,151.15,61.372,153.6,62.257z"/>
	</g>
	<g>
		<path style="fill:#E8E8E8;" d="M122.924,354.871c7.317-6.825,15.065-13.132,23.217-18.933c2.119-1.508,4.136,1.989,2.036,3.484
			c-7.874,5.604-15.334,11.711-22.4,18.302C123.879,359.493,121.02,356.646,122.924,354.871z"/>
	</g>
	<g>
		<path style="fill:#E8E8E8;" d="M97.145,254.798c-0.476-0.476-0.952-0.952-1.429-1.429c-0.747-0.747-0.803-2.116,0-2.853
			c0.805-0.739,2.055-0.797,2.853,0c0.476,0.476,0.952,0.952,1.428,1.429c0.747,0.747,0.803,2.116,0,2.853
			C99.192,255.537,97.942,255.595,97.145,254.798z"/>
	</g>
	<g>
		<path style="fill:#E8E8E8;" d="M48.571,125.64c2.596,0,2.6,4.034,0,4.034C45.975,129.674,45.971,125.64,48.571,125.64z"/>
	</g>
	<g>
		<path style="fill:#E8E8E8;" d="M7.143,135.64c2.596,0,2.6,4.034,0,4.034C4.547,139.674,4.543,135.64,7.143,135.64z"/>
	</g>
	<g>
		<path style="fill:#E8E8E8;" d="M100.208,17.457c1.78,1.889-1.067,4.747-2.852,2.853C91.683,14.289,87.175,7.48,83.818,0h4.406
			C91.286,6.398,95.3,12.248,100.208,17.457z"/>
	</g>
	<g>
		<path style="fill:#E8E8E8;" d="M28.572,133.96c-2.596,0-2.6-4.034,0-4.034C31.167,129.926,31.171,133.96,28.572,133.96z"/>
	</g>
	<g>
		<path style="fill:#E8E8E8;" d="M203.784,54.944c18.692,21.253,34.278,44.645,48.71,68.932
			c27.666,46.557,54.099,95.844,103.037,123.22c43.182,24.156,94.989,32.649,133.756,64.692
			c19.836,16.396,33.947,38.904,38.174,64.465c2.108,12.746,1.828,25.915-1.405,38.453c-3.515,13.633-10.916,25.353-18.487,37.048
			c-8.273,12.781-15.72,25.717-17.654,41.092c-2.036,16.191,1.032,32.592,5.745,48.061c4.437,14.566,10.992,28.065,17.091,41.963
			c5.329,12.142,10.195,25.011,10.161,38.461c-0.008,3.029-0.305,6.017-0.844,8.958c0.408,12.55-8.541,24.066-18.71,31.1
			c-15.46,10.694-34.472,13.896-48.522,27.008c-6.447,6.016-12.438,12.575-20.508,16.459c-7.227,3.478-15.25,5.021-23.243,5.066
			c-19.217,0.107-36.909-8.45-53.479-17.302c-17.487-9.341-35.173-18.689-50.998-30.723c-13.583-10.329-26.763-25.147-44.2-28.587
			c-17.269-3.408-30.363,9.269-34.421,25.098c-4.515,17.612,2.705,34.768,11.399,49.851c9.758,16.928,20.364,33.121,28.733,50.84
			c8.328,17.632,15.199,35.957,20.461,54.734c2.218,7.914,5.255,16.728,2.002,24.782c-2.506,6.206-7.958,10.572-13.651,13.757
			c-7.542,4.219-15.957,6.978-24.008,10.03c-9.906,3.755-19.889,7.337-30.067,10.289c-8.989,2.607-18.517,5.408-27.953,5.42
			c-8.222,0.011-15.613-2.885-22.082-7.859c-6.754-5.193-12.186-11.789-18.214-17.756c-5.093-5.041-10.699-9.501-16.661-13.471
			c-24.439-16.276-53.016-24.555-78.694-38.491c-12.027-6.528-23.541-14.448-32.566-24.84
			c-10.74-12.366-16.675-27.401-20.217-43.238C3.862,720.811,2.322,708.926,0,697.218v-16.755c1.345,4.396,2.481,8.876,3.429,13.426
			c3.665,17.592,5.237,35.735,11.191,52.786c5.054,14.474,13.8,26.786,25.599,36.523c21.928,18.095,50.033,26.73,75.348,38.804
			c12.691,6.054,25.068,12.984,35.841,22.098c11.786,9.97,21.421,26.472,37.625,29.493c10.506,1.959,21.918-1.687,31.946-4.561
			c9.651-2.765,19.125-6.105,28.52-9.632c13.299-4.993,39.343-11.044,38.483-29.549c-0.442-9.5-4.511-19.643-7.436-28.626
			c-3.143-9.651-6.705-19.169-10.696-28.501c-7.56-17.677-16.748-34.446-26.882-50.764c-9.008-14.505-18.59-29.934-20.265-47.334
			c-1.252-13.012,2.69-27.471,12.095-36.857c26.698-26.641,59.167,10.629,80.353,25.378c16.023,11.155,33.508,20.427,50.855,29.336
			c17.107,8.785,36.445,16.395,55.983,12.302c9.372-1.963,16.857-6.729,23.74-13.231c6.368-6.015,12.408-11.939,20.122-16.244
			c15.33-8.555,34.021-12.308,45.406-26.681c1.597-2.016,2.974-4.179,4.069-6.441c-0.528-0.424-0.79-1.099-0.438-1.936
			c1.348-3.212,2.285-6.41,2.903-9.595c-0.088-1.863-0.436-3.857-0.812-6.224c-0.216-1.36,0.702-2.294,1.719-2.474
			c0.345-21.934-13.043-43.146-21.119-63.311c-10.701-26.718-18.05-58.382-6.396-86.003c5.515-13.071,14.333-24.29,21.424-36.485
			c7.037-12.103,11.376-25.175,12.076-39.21c1.365-27.388-9.716-54.211-28.808-73.659c-34.977-35.63-87.198-45.356-130.666-66.597
			c-22.898-11.189-42.949-26.157-59.752-45.368c-17.521-20.032-31.396-42.892-44.864-65.746
			c-13.994-23.748-27.75-47.667-44.619-69.537c-18.045-23.394-38.932-44.614-61.99-63.082C148.373,8.465,142.617,4.161,136.755,0
			h6.859C165.567,16.102,185.795,34.491,203.784,54.944z"/>
	</g>
	<g>
		<path style="fill:#E8E8E8;" d="M38.21,898.959c5.694,2.715,12.965-0.544,15.336-6.207c0.988-2.359,4.894-1.323,3.89,1.073
			c-3.155,7.534-11.839,12.21-19.815,9.248c-7.823-2.906-11.659-12.292-8.905-19.966c0.871-2.426,4.77-1.38,3.891,1.072
			C30.646,889.641,32.749,896.355,38.21,898.959z"/>
	</g>
	<g>
		<path style="fill:#E8E8E8;" d="M543.837,330.263c-1.004,6.984,4.079,12.832,5.833,19.249c0.23,0.843,1.064,1.498,1.945,1.481
			c3.117-0.06,6.234-0.119,9.351-0.179c0.909-0.017,1.678-0.616,1.945-1.481c3.036-9.82,0.201-20.521-7.299-27.548
			c-0.516-0.483-1.101-0.615-1.644-0.528c-0.29-0.182-0.648-0.293-1.086-0.279C547.709,321.137,544.536,325.398,543.837,330.263z
			 M552.882,325.012c0.079-0.002,0.148-0.019,0.221-0.029c5.872,5.731,8.221,13.913,6.312,21.826
			c-2.109,0.04-4.218,0.081-6.327,0.121c-1.311-3.808-3.432-7.255-4.696-11.089C547.169,332.132,547.655,325.173,552.882,325.012z"
			/>
	</g>
	<g>
		<path style="fill:#E8E8E8;" d="M277.585,117.816c13.498,24.544,27.056,49.204,43.765,71.753
			c4.444,5.998,9.003,12.129,14.337,17.374c6.701,6.59,14.938,9.969,23.751,12.802c18.05,5.8,36.041,11.725,53.906,18.077
			c35.401,12.588,70.404,26.258,105.393,39.938c29.143,11.393,61.323,24.549,76.527,53.972
			c13.904,26.907,4.287,57.056-15.823,77.901c-10.874,11.272-24.403,17.844-37.465,26.09c-13.829,8.73-23.203,20.83-27.102,36.817
			c-8.212,33.673,7.775,65.991,20.318,96.321c8.831,21.354,16.891,43.638,21.299,66.37c3.896,20.092,5.685,44.271-7.133,61.727
			c-7.382,10.052-18.13,15.081-29.918,18.241c-7.613,2.041-15.05,4.041-21.936,7.989c-5.66,3.246-10.826,7.264-15.736,11.542
			c-17.067,14.869-33.272,36.369-57.243,39.52c-16.232,2.134-30.939-5.823-44.544-13.623c-17.046-9.773-34.071-19.583-51.107-29.374
			c-3.727-2.142-7.453-4.284-11.18-6.425c-4.505-2.589-9.499-6.417-14.739-7.178c-9.439-1.371-11.034,8.844-10.578,15.942
			c0.513,7.981,2.878,16.126,4.871,23.843c2.188,8.473,4.747,16.852,7.67,25.101c5.972,16.854,13.468,33.152,22.366,48.662
			c3.16,5.509,9.168,12.366,7.888,19.215c-1.094,5.854-6.885,7.958-11.863,9.652c-28.085,9.555-46.241,34.768-71.829,48.615
			c-14.076,7.617-30.169,10.79-46.085,8.928c-7.428-0.869-14.898-2.539-21.558-6.042c-5.6-2.945-10.377-7.122-14.96-11.43
			c-11.915-11.197-24.83-19.877-39.679-26.798c-15.387-7.173-31.626-12.346-47.933-16.968C53.88,848.606,24.834,842.954,0,828.415
			v-4.743c13.514,8.292,29.028,13.818,44.06,18.27c30.291,8.97,61.419,15.375,90.018,29.264
			c13.645,6.626,25.719,14.805,36.729,25.205c5.133,4.849,10.403,9.556,16.865,12.569c7.684,3.582,16.674,4.923,25.079,5.105
			c16.779,0.364,32.187-5.215,45.936-14.548c11.733-7.964,22.078-17.741,33.307-26.364c5.712-4.386,11.651-8.514,18.047-11.848
			c2.539-1.323,5.147-2.518,7.809-3.573c3.28-1.299,7.055-2.003,10.06-3.888c5.564-3.49,2.702-9.155,0.071-13.574
			c-2.239-3.762-4.481-7.515-6.598-11.348c-3.966-7.182-7.635-14.529-10.997-22.013c-6.797-15.129-12.38-30.8-16.615-46.836
			c-2.041-7.727-4.106-15.647-5.139-23.582c-0.674-5.175-0.67-10.91,1.546-15.748c7.201-15.722,25.814-1.568,35.141,3.793
			c16.503,9.485,33.007,18.971,49.51,28.456c14.603,8.393,30.369,19.128,48.028,17.393c12.248-1.203,22.77-8.351,31.86-16.165
			c9.39-8.072,17.832-17.187,27.389-25.072c10.282-8.483,21.006-13.841,33.889-17.236c12.933-3.407,24.789-8.305,31.995-20.169
			c5.53-9.105,7.23-19.958,7.246-30.461c0.033-22.397-6.78-44.55-14.137-65.489c-4.503-12.814-9.563-25.37-14.847-37.882
			c-6.467-15.314-12.933-30.891-15.903-47.33c-4.869-26.953,0.306-56.81,23.297-74.061c12.694-9.525,27.595-15.317,39.338-26.231
			c11.132-10.347,20.042-23.606,23.56-38.524c7.982-33.851-17.513-60.89-45.299-75.529c-15.804-8.326-32.801-14.312-49.414-20.79
			c-17.225-6.717-34.467-13.395-51.772-19.903c-17.301-6.507-34.666-12.846-52.136-18.883c-8.734-3.018-17.494-5.962-26.284-8.813
			c-7.862-2.55-15.943-4.703-23.555-7.955c-13.689-5.849-22.429-17.697-30.997-29.364c-8.065-10.981-15.405-22.478-22.364-34.186
			c-27.923-46.978-50.08-99.083-89.525-138.028C198.465,11.687,191.265,5.564,183.639,0h6.613
			C229.253,30.493,253.93,74.805,277.585,117.816z"/>
	</g>
	<g>
		<path style="fill:#E8E8E8;" d="M61.376,67.447c-3.347,2.054-4.989,6.362-4.27,10.31c0.963,5.288,6.172,8.022,11.212,6.667
			c5.165-1.388,9.02-6.503,7.656-11.911c-1.501-5.952-7.848-9.424-13.672-8.244C60.626,64.608,60.529,66.402,61.376,67.447z
			 M64.977,70.318c1.154-0.253,1.554-1.194,1.416-2.093c2.668,0.614,5.055,2.638,5.691,5.361c0.766,3.273-1.796,6.154-4.838,6.949
			C60.208,82.373,58.685,71.699,64.977,70.318z"/>
	</g>
	<g>
		<path style="fill:#E8E8E8;" d="M148.571,114.212c2.596,0,2.6,4.034,0,4.034C145.975,118.246,145.971,114.212,148.571,114.212z"/>
	</g>
	<g>
		<path style="fill:#E8E8E8;" d="M109.733,29.403c8.221,6.849,16.845,13.152,25.853,18.926c2.179,1.397,0.158,4.89-2.036,3.483
			c-9.296-5.959-18.186-12.489-26.669-19.557C104.884,30.593,107.751,27.752,109.733,29.403z"/>
	</g>
	<g>
		<path style="fill:#E8E8E8;" d="M47.143,276.817c-1.055,0-2.066-0.928-2.017-2.017c0.049-1.093,0.886-2.017,2.017-2.017
			c0.476,0,0.953,0,1.429,0c1.055,0,2.066,0.928,2.017,2.017c-0.049,1.093-0.886,2.017-2.017,2.017
			C48.095,276.817,47.619,276.817,47.143,276.817z"/>
	</g>
	<g>
		<path style="fill:#E8E8E8;" d="M108.571,114.212c1.055,0,2.066,0.928,2.017,2.017c-0.049,1.093-0.886,2.017-2.017,2.017
			c-0.476,0-0.952,0-1.429,0c-1.055,0-2.066-0.928-2.017-2.017c0.049-1.093,0.886-2.017,2.017-2.017
			C107.619,114.212,108.095,114.212,108.571,114.212z"/>
	</g>
	<g>
		<path style="fill:#E8E8E8;" d="M90,115.64c2.596,0,2.6,4.034,0,4.034C87.404,119.674,87.4,115.64,90,115.64z"/>
	</g>
	<g>
		<path style="fill:#E8E8E8;" d="M54.286,282.783c2.596,0,2.6,4.034,0,4.034C51.69,286.817,51.686,282.783,54.286,282.783z"/>
	</g>
	<g>
		<path style="fill:#E8E8E8;" d="M70,121.354c2.596,0,2.6,4.034,0,4.034C67.404,125.389,67.4,121.354,70,121.354z"/>
	</g>
	<g>
		<path style="fill:#E8E8E8;" d="M127.143,116.817c-2.596,0-2.6-4.034,0-4.034C129.739,112.783,129.743,116.817,127.143,116.817z"/>
	</g>
	<g>
		<path style="fill:#E8E8E8;" d="M161.43,780.511c-0.476-0.476-0.952-0.952-1.428-1.429c-0.747-0.747-0.803-2.116,0-2.853
			c0.805-0.739,2.055-0.797,2.853,0c0.476,0.476,0.952,0.952,1.429,1.429c0.747,0.747,0.803,2.116,0,2.853
			C163.478,781.25,162.228,781.308,161.43,780.511z"/>
	</g>
	<g>
		<path style="fill:#E8E8E8;" d="M181.428,748.496c2.596,0,2.6,4.034,0,4.034C178.832,752.53,178.828,748.496,181.428,748.496z"/>
	</g>
	<g>
		<path style="fill:#E8E8E8;" d="M134.285,732.53c-2.596,0-2.6-4.034,0-4.034C136.881,728.496,136.886,732.53,134.285,732.53z"/>
	</g>
	<g>
		<path style="fill:#E8E8E8;" d="M145.714,749.925c1.056,0,2.066,0.928,2.017,2.017c-0.049,1.093-0.886,2.017-2.017,2.017
			c-0.476,0-0.952,0-1.428,0c-1.055,0-2.066-0.928-2.017-2.017c0.049-1.093,0.887-2.017,2.017-2.017
			C144.762,749.925,145.238,749.925,145.714,749.925z"/>
	</g>
	<g>
		<path style="fill:#E8E8E8;" d="M129.997,747.658c0.739,0.805,0.797,2.055,0,2.853c-0.476,0.476-0.952,0.952-1.429,1.429
			c-0.747,0.747-2.116,0.803-2.853,0c-0.739-0.805-0.797-2.055,0-2.853c0.476-0.476,0.953-0.952,1.429-1.428
			C127.892,746.911,129.261,746.855,129.997,747.658z"/>
	</g>
	<g>
		<path style="fill:#E8E8E8;" d="M4.059,179.928c-1.346-1.416-2.695-2.848-4.059-4.271v5.709c0.588,0.628,1.174,1.257,1.759,1.882
			c-0.585,0.848-1.174,1.693-1.759,2.541v2.258c0.795,0.922,2.498,1.208,3.411-0.117c0.389-0.565,0.782-1.127,1.171-1.691
			c0.679,0.711,1.359,1.416,2.042,2.106c5.887,5.958,11.815,11.876,17.76,17.776c-1.29,1.826-2.583,3.649-3.872,5.476
			c-1.501,2.128,1.999,4.141,3.483,2.036c1.091-1.547,2.187-3.091,3.279-4.638c0.137,0.135,0.273,0.272,0.41,0.407
			c6.146,6.082,12.317,12.139,18.497,18.187c-2.99,4.376-5.954,8.769-8.816,13.231c-1.407,2.194,2.086,4.215,3.484,2.036
			c2.682-4.182,5.458-8.3,8.255-12.404c5.976,5.842,11.959,11.677,17.94,17.513c-1.636,2.362-3.269,4.727-4.909,7.087
			c-1.486,2.14,2.013,4.154,3.483,2.036c1.451-2.089,2.896-4.183,4.345-6.274c0.426,0.416,0.853,0.832,1.28,1.248
			c1.86,1.816,4.714-1.036,2.852-2.853c-0.6-0.586-1.202-1.173-1.802-1.759c4.514-6.522,9.022-13.048,13.525-19.579
			c5.139,5.108,10.281,10.212,15.397,15.342c1.836,1.842,4.688-1.012,2.852-2.853c-5.29-5.305-10.607-10.584-15.921-15.865
			c4.658-6.758,9.317-13.515,13.979-20.271c6.487,6.221,12.975,12.44,19.46,18.663c-4.134,5.903-8.27,11.805-12.419,17.698
			c-1.499,2.129,2.001,4.143,3.483,2.036c3.966-5.633,7.919-11.275,11.871-16.918c7.039,6.761,14.059,13.542,21.059,20.342
			c-0.67,0.947-1.333,1.9-2.004,2.846c-1.506,2.124,1.994,4.137,3.483,2.036c0.482-0.68,0.958-1.364,1.44-2.044
			c1.677,1.632,3.36,3.257,5.033,4.893c1.858,1.817,4.712-1.034,2.853-2.853c-1.839-1.799-3.69-3.586-5.534-5.381
			c5.13-7.256,10.255-14.516,15.349-21.797c1.493-2.134-2.006-4.148-3.484-2.036c-4.907,7.013-9.845,14.005-14.785,20.995
			c-7.003-6.8-14.026-13.581-21.067-20.343c5.004-7.151,9.999-14.308,14.985-21.471c6.656,6.441,13.288,12.904,19.862,19.429
			c1.846,1.832,4.698-1.021,2.853-2.853c-6.744-6.694-13.55-13.325-20.38-19.932c5.023-7.221,10.038-14.448,15.046-21.68
			c3.054,2.919,6.104,5.843,9.139,8.781c1.867,1.807,4.721-1.043,2.852-2.853c-3.211-3.108-6.438-6.2-9.669-9.287
			c3.849-5.561,7.698-11.123,11.54-16.688c1.48-2.144-2.018-4.159-3.483-2.036c-3.664,5.307-7.333,10.609-11.003,15.911
			c-6.499-6.196-13.009-12.382-19.479-18.607c4.116-5.831,8.245-11.653,12.399-17.457c1.515-2.117-1.986-4.129-3.483-2.036
			c-3.969,5.545-7.915,11.105-11.848,16.674c-6.103-5.9-12.148-11.859-18.103-17.91c0.418-0.618,0.845-1.23,1.26-1.85
			c1.45-2.166-2.046-4.183-3.483-2.036c-0.221,0.33-0.448,0.655-0.67,0.984c-1.816-1.519-4.428,1.201-2.674,3.003
			c0.123,0.127,0.249,0.25,0.372,0.377c-4.998,7.31-10.153,14.509-15.35,21.68c-5.945-5.821-11.853-11.681-17.709-17.594
			c0.348-0.49,0.696-0.979,1.044-1.469c1.508-2.122-1.992-4.135-3.484-2.036c-0.196,0.276-0.392,0.552-0.589,0.828
			c-1.599-0.438-3.288,1.548-2.199,3.093c-5.13,7.217-10.26,14.434-15.39,21.651c-5.116-5.059-10.215-10.135-15.279-15.247
			c-1.831-1.848-4.682,1.006-2.853,2.853c5.224,5.273,10.486,10.508,15.764,15.724c-4.633,6.518-9.262,13.039-13.89,19.561
			c-6.721-6.616-13.432-13.241-20.142-19.869c2.487-3.549,4.963-7.105,7.466-10.643c1.504-2.126-1.996-4.139-3.483-2.036
			c-2.308,3.262-4.591,6.542-6.885,9.814c-1.694-1.675-3.393-3.344-5.085-5.02c-1.847-1.83-4.7,1.023-2.853,2.853
			c1.86,1.842,3.727,3.677,5.589,5.517C13.052,166.956,8.545,173.435,4.059,179.928z M59.76,163.165
			c5.889,5.8,11.802,11.574,17.737,17.327c-0.416,0.599-0.838,1.192-1.252,1.793c-4.178,6.063-8.112,12.278-12.078,18.474
			c-6.098-6.012-12.196-12.023-18.298-18.029C50.497,176.207,55.127,169.685,59.76,163.165z M95.157,155.813
			c-5.143,7.084-10.288,14.167-15.32,21.329c-5.925-5.746-11.83-11.513-17.709-17.307c5.114-7.195,10.229-14.39,15.343-21.585
			C83.32,144.151,89.218,150.003,95.157,155.813z M133.85,151.599c-5.039,7.151-10.056,14.318-15.054,21.498
			c-6.132-5.898-12.254-11.808-18.344-17.749c5.183-7.148,10.331-14.32,15.329-21.599
			C121.726,139.779,127.76,145.718,133.85,151.599z M141.256,194.706c-6.498-6.272-13.014-12.526-19.526-18.784
			c4.998-7.182,10.015-14.35,15.053-21.503c6.481,6.23,12.999,12.422,19.504,18.627
			C151.283,180.271,146.273,187.491,141.256,194.706z M104.447,200.865c4.973-7.204,9.952-14.404,14.947-21.593
			c6.514,6.259,13.031,12.514,19.53,18.789c-4.989,7.169-9.987,14.332-14.994,21.489
			C117.438,213.32,110.941,207.093,104.447,200.865z M101.505,198.044c-6.261-6.008-12.51-12.029-18.745-18.064
			c5.021-7.166,10.158-14.251,15.3-21.331c6.11,5.957,12.249,11.884,18.4,17.799C111.462,183.638,106.48,190.838,101.505,198.044z
			 M85.251,221.611c-6.04-5.994-12.09-11.977-18.148-17.953c4.153-6.48,8.254-12.993,12.625-19.337
			c0.229-0.332,0.463-0.66,0.692-0.991c6.242,6.039,12.498,12.063,18.764,18.076C94.538,208.14,89.893,214.875,85.251,221.611z
			 M51.412,227.067c3.014-4.393,6.043-8.777,9.018-13.197c1.504-2.234,2.978-4.487,4.441-6.746
			c6.026,5.945,12.044,11.899,18.052,17.863c-4.511,6.542-9.027,13.081-13.549,19.616C63.385,238.759,57.395,232.917,51.412,227.067
			z M29.635,205.656c4.618-6.535,9.241-13.066,13.869-19.593c6.148,6.051,12.291,12.108,18.434,18.165
			c-1.779,2.758-3.573,5.507-5.41,8.229c-2.654,3.933-5.348,7.84-8.034,11.751C42.193,218.039,35.901,211.861,29.635,205.656z
			 M6.905,182.883c4.506-6.522,9.03-13.032,13.571-19.529c6.704,6.622,13.411,13.242,20.126,19.853
			c-4.625,6.521-9.243,13.046-13.858,19.574c-6.526-6.479-13.028-12.982-19.483-19.532C7.143,183.128,7.024,183.004,6.905,182.883z"
			/>
	</g>
	<g>
		<path style="fill:#E8E8E8;" d="M165.714,744.21c2.596,0,2.6,4.034,0,4.034C163.118,748.245,163.114,744.21,165.714,744.21z"/>
	</g>
	<g>
		<path style="fill:#E8E8E8;" d="M110,752.53c-2.596,0-2.6-4.034,0-4.034C112.596,748.496,112.6,752.53,110,752.53z"/>
	</g>
	<g>
		<path style="fill:#E8E8E8;" d="M155.714,763.959c-2.596,0-2.6-4.034,0-4.034C158.31,759.925,158.314,763.959,155.714,763.959z"/>
	</g>
	<g>
		<path style="fill:#E8E8E8;" d="M151.428,743.959c-2.596,0-2.6-4.034,0-4.034C154.024,739.925,154.028,743.959,151.428,743.959z"/>
	</g>
	<g>
		<path style="fill:#E8E8E8;" d="M25.714,241.354c2.596,0,2.6,4.034,0,4.034C23.118,245.389,23.114,241.354,25.714,241.354z"/>
	</g>
	<g>
		<path style="fill:#E8E8E8;" d="M18.571,227.069c2.596,0,2.6,4.034,0,4.034C15.976,231.103,15.971,227.069,18.571,227.069z"/>
	</g>
	<g>
		<path style="fill:#E8E8E8;" d="M29.985,394.815c-6.314-5.965-14.216-9.671-22.866-10.586c-2.555-0.27-2.583-4.308,0-4.034
			c9.762,1.033,18.575,5.018,25.719,11.768C34.729,393.749,31.872,396.598,29.985,394.815z"/>
	</g>
	<g>
		<path style="fill:#E8E8E8;" d="M10,209.926c2.596,0,2.6,4.034,0,4.034C7.404,213.96,7.4,209.926,10,209.926z"/>
	</g>
	<g>
		<path style="fill:#E8E8E8;" d="M37.143,262.531c-2.596,0-2.6-4.034,0-4.034C39.739,258.497,39.743,262.531,37.143,262.531z"/>
	</g>
	<g>
		<path style="fill:#E8E8E8;" d="M71.445,571.611c5.505,2.871,11.068,5.672,16.78,8.11c11.331,4.836,22.965,7.203,35.3,6.559
			c10.465-0.547,21.888-2.008,31.565-6.236c8.128-3.552,14.565-10.617,13.471-20.016c-1.159-9.953-8.807-17.327-16.723-22.6
			c-4.738-3.156-9.797-5.88-14.268-9.425c-4.155-3.295-7.356-7.377-10.509-11.599c-4.524-6.059-9.339-12.525-16.597-15.004
			c-0.137-0.61-0.577-1.13-1.401-1.293c-23.498-4.668-47.014,9.565-52.914,32.993c-2.383,9.463-2.01,20.63,3.554,28.968
			C62.633,566.459,66.843,569.211,71.445,571.611z M61.908,557.877c-4.521-8.65-3.748-19.598-0.367-28.486
			c1.154-3.034,2.651-5.851,4.425-8.432c3.313,4.325,7.186,8.044,11.683,11.155c2.142,1.482,4.157-2.016,2.036-3.483
			c-4.175-2.888-7.848-6.431-10.86-10.521c-0.114-0.155-0.242-0.28-0.376-0.391c8.861-10.432,22.708-15.945,36.682-14.175
			c0.198,0.48,0.616,0.866,1.318,0.987c9.398,1.624,14.443,10.524,19.822,17.476c6.04,7.806,13.707,12.558,21.889,17.832
			c7.079,4.563,15.113,11.06,16.346,19.948c-0.078-0.002-0.15-0.011-0.233-0.004c-7.488,0.624-14.958,0.476-22.404-0.559
			c-2.543-0.354-3.633,3.534-1.072,3.89c7.817,1.087,15.607,1.359,23.477,0.703c0.103-0.009,0.196-0.033,0.291-0.053
			c-1.01,8.255-9.407,12.522-16.822,14.626c-9.68,2.746-20.154,4.143-30.209,3.971c-11.012-0.189-21.283-3.302-31.224-7.876
			C77.826,570.581,66.47,566.605,61.908,557.877z"/>
	</g>
	<g>
		<path style="fill:#E8E8E8;" d="M107.731,730.513c0,0.476,0,0.952,0,1.429c0,1.055-0.928,2.066-2.017,2.017
			c-1.093-0.049-2.017-0.886-2.017-2.017c0-0.476,0-0.952,0-1.429c0-1.055,0.928-2.066,2.017-2.017
			C106.807,728.545,107.731,729.382,107.731,730.513z"/>
	</g>
	<g>
		<path style="fill:#E8E8E8;" d="M96.452,614.199c1.557,10.851-9.397,21.142-20.256,17.83c-10.282-3.136-14.341-16.03-9.745-25.154
			c1.168-2.319,4.65-0.279,3.484,2.036c-3.284,6.52-0.654,15.717,6.219,18.789c7.762,3.47,17.615-4.019,16.408-12.429
			C92.197,612.732,96.084,611.635,96.452,614.199z"/>
	</g>
	<g>
		<path style="fill:#E8E8E8;" d="M202.857,179.926c2.596,0,2.6,4.034,0,4.034C200.261,183.96,200.257,179.926,202.857,179.926z"/>
	</g>
	<g>
		<path style="fill:#E8E8E8;" d="M235.167,226.821c-1.93,12.129-5.14,23.952-9.61,35.392c-0.935,2.391-4.837,1.351-3.89-1.073
			c4.47-11.44,7.68-23.262,9.61-35.391C231.684,223.192,235.572,224.277,235.167,226.821z"/>
	</g>
	<g>
		<path style="fill:#E8E8E8;" d="M236.744,181.223c3.257,9.449,4.51,19.316,3.71,29.279c-0.206,2.57-4.242,2.592-4.034,0
			c0.773-9.636-0.416-19.068-3.566-28.206C232.006,179.836,235.902,178.779,236.744,181.223z"/>
	</g>
	<g>
		<path style="fill:#E8E8E8;" d="M221.63,135.28c5.804,9.488,10.138,19.707,12.926,30.475c0.651,2.515-3.239,3.588-3.89,1.072
			c-2.705-10.448-6.887-20.304-12.519-29.511C216.788,135.095,220.276,133.066,221.63,135.28z"/>
	</g>
	<g>
		<path style="fill:#E8E8E8;" d="M191.101,91.516c10.291,7.674,18.358,17.628,23.52,29.399c1.033,2.355-2.442,4.411-3.484,2.036
			c-4.865-11.093-12.349-20.701-22.073-27.952C187.007,93.465,189.016,89.962,191.101,91.516z"/>
	</g>
	<g>
		<path style="fill:#E8E8E8;" d="M181.428,789.673c-2.596,0-2.6-4.034,0-4.034C184.024,785.639,184.028,789.673,181.428,789.673z"/>
	</g>
	<g>
		<path style="fill:#E8E8E8;" d="M194.285,157.069c2.596,0,2.6,4.034,0,4.034C191.69,161.103,191.685,157.069,194.285,157.069z"/>
	</g>
	<g>
		<path style="fill:#E8E8E8;" d="M195.714,778.245c-2.596,0-2.6-4.034,0-4.034C198.31,774.21,198.314,778.245,195.714,778.245z"/>
	</g>
	<g>
		<path style="fill:#E8E8E8;" d="M198.571,759.673c-1.093-0.049-2.017-0.886-2.017-2.017c0-0.476,0-0.952,0-1.429
			c0-1.055,0.928-2.066,2.017-2.017c1.093,0.049,2.017,0.886,2.017,2.017c0,0.476,0,0.952,0,1.429
			C200.588,758.711,199.66,759.722,198.571,759.673z"/>
	</g>
	<g>
		<path style="fill:#E8E8E8;" d="M220.351,275.839c-5.215,9.452-12.035,17.791-20.285,24.755c-1.972,1.665-4.84-1.175-2.853-2.853
			c8.005-6.758,14.592-14.764,19.654-23.939C218.122,271.529,221.607,273.561,220.351,275.839z"/>
	</g>
	<g>
		<path style="fill:#E8E8E8;" d="M336.797,405.112c0.015-7.774-2.826-15.704-10.596-18.66c-6.82-2.594-14.698-0.823-21.072,2.189
			c-6.072,2.87-12.428,7.786-14.578,14.419c-2.348,7.245,2.197,13.206,8.161,16.852c8.401,4.612,18.707,3.916,27.833,2.065
			C334.99,420.265,336.783,412.783,336.797,405.112z M332.045,412.123c-1.235,4.542-4.31,5.649-8.627,6.281
			c-7.604,1.112-15.687,1.859-22.67-1.974c-5.34-3.264-8.727-8.33-5.374-14.339c4.93-8.835,18.996-15.314,28.82-12.079
			c6.078,2.001,8.366,7.941,8.553,13.91C332.831,406.62,332.756,409.51,332.045,412.123z"/>
	</g>
	<g>
		<path style="fill:#E8E8E8;" d="M227.676,391.782c-1.889-1.576-0.433-4.373,1.049-5.725c1.651-1.505,3.883-2.116,6.056-1.578
			c1.806,0.447,1.762,2.568,0.666,3.506C235.359,391.597,230.732,394.332,227.676,391.782z"/>
	</g>
	<g>
		<path style="fill:#E8E8E8;" d="M160.885,448.523c6.716-1.081,13.202-2.931,19.433-5.669c2.355-1.034,4.41,2.44,2.036,3.483
			c-6.571,2.887-13.306,4.935-20.397,6.076C159.418,452.822,158.325,448.935,160.885,448.523z"/>
	</g>
	<g>
		<path style="fill:#E8E8E8;" d="M369.757,409.106c7.721-4.039,14.863-10.842,9.718-20.014c-5.322-9.486-16.213-10.446-25.93-10.973
			c-6.996-0.379-12.624-1.998-19.046-4.712c-4.995-2.111-10.191-3.707-15.539-4.632c-19.709-3.408-39.258,2.708-52.316,18.115
			c-14.044,17.767-7.829,49.027,13.45,58.201c10.774,4.645,22.651,3.913,33.911,1.642c5.607-1.131,11.329-2.387,16.537-4.814
			c5.076-2.365,8.904-6.213,12.45-10.464C350.718,422.194,359.007,414.729,369.757,409.106z M358.217,411.26
			c-7.613,5.297-13.341,11.934-19.369,18.875c-7.174,8.261-16.265,10.836-26.678,12.864c-10.521,2.049-21.858,2.624-31.755-2.168
			c-17.564-8.505-22.872-35.962-10.918-51.086c13.281-15.672,33.344-20.962,53.054-16.098c9.176,2.264,17.202,7.314,26.725,8.225
			c9.337,0.892,22.038-0.376,26.989,9.744c2.931,5.989-1.618,10.21-6.466,12.903C365.87,406.698,361.919,408.684,358.217,411.26z"/>
	</g>
	<g>
		<path style="fill:#E8E8E8;" d="M386.89,315.339c-3.209,2.178-6.815,3.606-10.65,4.189c-2.54,0.386-3.635-3.5-1.072-3.89
			c3.542-0.539,6.721-1.77,9.687-3.782C387.008,310.394,389.029,313.888,386.89,315.339z"/>
	</g>
	<g>
		<path style="fill:#E8E8E8;" d="M419.64,313.019c0.946-7.633-5.253-12.34-11.893-14.157c-7.665-2.097-16.328-1.545-23.897,0.693
			c-6.056,1.791-12.582,5.044-15.052,11.202c-0.09,0.159-0.168,0.332-0.218,0.538c-0.068,0.193-0.097,0.373-0.111,0.547
			c-1.026,5.182,1.369,10.124,5.582,13.272c5.6,4.184,13.013,3.962,19.641,3.482C403.924,327.856,418.075,325.635,419.64,313.019z
			 M415.715,311.804c-0.14,6.561-6.771,10.304-12.4,11.589c-5.831,1.332-12.731,1.908-18.696,1.301
			c-6.185-0.629-13.949-4.964-12.15-12.326c2.176-6.18,10.413-8.676,16.151-9.837c6.785-1.374,14.908-1.609,21.324,1.382
			c2.274,1.06,4.283,2.627,5.223,4.833c-0.113-0.04-0.23-0.078-0.362-0.101c-3.549-0.621-6.929-0.146-10.144,1.493
			c-2.316,1.18-0.272,4.66,2.036,3.483c2.184-1.113,4.615-1.51,7.036-1.086C414.589,312.685,415.273,312.34,415.715,311.804z"/>
	</g>
	<g>
		<path style="fill:#E8E8E8;" d="M365.155,498.614c-5.145-12.253-11.321-26.584-8.523-40.146
			c3.167-15.354,18.651-21.598,31.048-28.304c14.81-8.01,29.62-16.021,44.43-24.032c10.077-5.45,23.557-11.07,27.998-22.621
			c4.3-11.185-3.268-22.031-13.182-26.912c-12.935-6.368-27.622-2.295-41.094-0.289c-15.311,2.279-31.148,1.598-46.109-2.458
			c-13.777-3.735-25.947-11.435-39.511-15.711c-13.345-4.208-27.307-2.821-41.001-1.331c-13.861,1.508-27.636,4.263-40.254,10.382
			c-5.23,2.655-10.102,5.909-14.553,9.731c-18.235,15.658-28.83,40.919-20.403,64.395c1.645,4.582,3.691,8.961,5.854,13.282
			c-3.449,1.21-6.82,2.692-10.081,4.446c-2.29,1.231-0.25,4.713,2.036,3.483c3.201-1.721,6.506-3.151,9.887-4.303
			c3.958,7.707,8.046,15.351,10.65,23.75c4.222,13.618,7.064,27.613,13.641,40.383c11.118,21.589,29.894,39.035,51.775,49.404
			c10.703,5.072,22.121,8.492,33.88,9.955c11.767,1.465,25.753,1.893,36.612-3.576C380.812,546.781,372.788,516.791,365.155,498.614
			z M363.484,505.055c3.941,10.149,7.089,21.864,4.974,32.784c-2.63,13.583-13.971,19.319-26.889,20.347
			c-47.633,3.788-94.093-28.511-108.546-73.682c-4.26-13.314-6.921-27.076-13.064-39.73c-1.276-2.629-2.657-5.231-4.045-7.834
			c8.191-2.184,16.753-2.747,25.334-1.667c2.573,0.324,2.541-3.714,0-4.034c-9.228-1.162-18.463-0.424-27.266,2.062
			c-4.373-8.306-8.378-16.77-8.936-26.341c-1.395-23.935,15.351-45.829,35.946-56.283c6.108-2.962,12.532-5.092,19.132-6.655
			c13.177-3.119,27.04-4.401,40.566-4.726c13.653-0.327,25.665,5.27,37.81,10.789c12.261,5.572,24.682,9.559,38.135,10.937
			c13.819,1.416,27.035-0.349,40.648-2.535c13.143-2.111,30.176-2.661,37.887,10.664c7.359,12.717-5.384,22.615-15.311,28.188
			c-13.485,7.57-27.212,14.737-40.815,22.094c-6.817,3.687-13.635,7.374-20.452,11.062c-5.286,2.861-10.627,5.7-15.258,9.576
			C342.538,457.475,355.568,484.671,363.484,505.055z"/>
	</g>
</g>
<g id="Layer_2">
</g>
</svg>
